<svg width="49" height="42" viewBox="0 0 49 42" fill="none" xmlns="http://www.w3.org/2000/svg">
<path d="M10.6135 0.139033C9.80939 0.30345 8.42135 1.00947 7.69382 1.59944C6.14305 2.86641 5.20492 4.74269 5.09005 6.80273C5.01347 8.14708 5.21449 9.11424 5.84629 10.4296C6.26749 11.3097 6.4398 11.5418 7.20561 12.3155C7.93314 13.0506 8.22032 13.273 8.98614 13.6502C10.1444 14.2208 10.9677 14.4239 12.193 14.4239C13.4949 14.4239 14.701 14.1241 15.6487 13.5728C16.0221 13.3504 16.0508 13.302 16.2614 12.4896C16.6826 10.8454 17.7547 9.03686 18.913 8.04069L19.4491 7.57646L19.3917 6.70602C19.2576 4.72335 18.3099 2.84707 16.7879 1.59944C16.0508 0.990129 14.6819 0.313121 13.8203 0.129361C12.9875 -0.0447264 11.4367 -0.0447264 10.6135 0.139033Z" fill="black" fill-opacity="0.54"/>
<path d="M35.1196 0.129363C34.3059 0.313123 32.9274 1.00947 32.1999 1.59944C30.764 2.77937 29.7972 4.59762 29.6057 6.51259L29.5483 7.10255L29.9599 7.38303C31.7883 8.59197 33.3295 11.0969 33.6358 13.302C33.6933 13.7663 33.722 13.8049 34.0953 13.95C34.9856 14.2885 35.7514 14.4239 36.7469 14.4239C38.0201 14.4239 38.8242 14.2305 40.0017 13.6502C40.7675 13.273 41.0547 13.0506 41.7822 12.3155C42.548 11.5418 42.7203 11.3097 43.1415 10.4296C43.7733 9.11424 43.9743 8.14708 43.8977 6.80274C43.7254 3.72718 41.7152 1.16422 38.7476 0.226078C38.0297 -0.00603867 35.9524 -0.0640678 35.1196 0.129363Z" fill="black" fill-opacity="0.54"/>
<path d="M23.6611 7.52808C21.8997 7.84724 20.2436 8.86275 19.1811 10.2845C18.578 11.0969 18.2716 11.6868 17.9653 12.654C17.7834 13.273 17.7451 13.5825 17.7451 14.7334C17.7451 16.2228 17.8792 16.7934 18.4822 18.0024C20.5308 22.1031 25.9681 23.2347 29.4334 20.2752C32.085 18.012 32.7839 14.3755 31.1661 11.2516C30.8693 10.6713 30.5438 10.2555 29.9025 9.60746C28.9356 8.63064 28.0262 8.07936 26.7913 7.72151C25.9681 7.48939 24.4269 7.39268 23.6611 7.52808Z" fill="black" fill-opacity="0.54"/>
<path d="M7.3492 15.1686C3.72115 15.9424 0.925919 18.7955 0.179248 22.49C-0.00263315 23.4088 -0.0122058 23.757 0.00693956 27.703L0.0356577 31.9294L1.47156 32.3453C3.07978 32.8192 5.48252 33.3608 6.928 33.5929C7.88527 33.7477 10.288 34.0282 10.6709 34.0282C10.872 34.0282 10.8815 33.9895 10.9294 32.0165C10.9677 30.2659 11.006 29.8887 11.2261 29.0473C11.7048 27.2 12.8726 25.1787 14.2224 23.8537C15.2754 22.8188 17.0751 21.7066 18.2525 21.3488C18.4727 21.2811 18.6546 21.2037 18.6546 21.165C18.6546 21.136 18.5205 20.9812 18.3578 20.8168C17.2187 19.7239 16.2039 17.4705 16.0125 15.5942L15.9455 14.9752L12.059 14.9849C8.68938 14.9849 8.06715 15.0139 7.3492 15.1686Z" fill="black" fill-opacity="0.54"/>
<path d="M33.7411 15.188C33.7124 15.3137 33.6646 15.6522 33.6358 15.9424C33.4731 17.4028 32.7264 19.134 31.7117 20.401C31.3671 20.8362 31.0991 21.194 31.1182 21.2134C31.1374 21.2231 31.3958 21.3294 31.6926 21.4358C34.2581 22.3933 36.4023 24.347 37.6564 26.8712C38.4892 28.5541 38.7381 29.705 38.8242 32.2583C38.8817 34.0862 38.8817 34.1249 39.0827 34.0766C39.1976 34.0572 39.7145 34.0089 40.241 33.9798C43.0554 33.7961 46.2814 33.0514 48.2629 32.1229L49 31.7747V27.616C49 23.815 48.9809 23.3895 48.799 22.49C48.0619 18.7665 45.2571 15.923 41.5907 15.159C40.8345 15.0042 40.2697 14.9752 37.2543 14.9752H33.7794L33.7411 15.188Z" fill="black" fill-opacity="0.54"/>
<path d="M20.8275 22.5287C18.5109 22.7705 16.2326 24.0084 14.7393 25.8267C14.0405 26.6681 13.179 28.351 12.8918 29.4342C12.6907 30.1692 12.6812 30.4303 12.6429 34.8116L12.6142 39.4152L13.7916 39.7634C16.2997 40.5081 18.4152 40.9627 20.7605 41.2818C22.6655 41.543 26.8583 41.6494 28.5527 41.4849C31.7213 41.1658 34.4495 40.5178 36.3449 39.628L37.149 39.2508L37.1011 34.8793C37.0533 30.0048 37.0245 29.763 36.3927 28.2252C35.0526 25.0046 32.1808 22.8769 28.7154 22.519C27.5763 22.403 21.9284 22.4126 20.8275 22.5287Z" fill="black" fill-opacity="0.54"/>
</svg>
