<svg width="29" height="20" viewBox="0 0 29 20" fill="none" xmlns="http://www.w3.org/2000/svg">
<path d="M8.7 10C11.5048 10 13.775 7.76339 13.775 5C13.775 2.23661 11.5048 0 8.7 0C5.89516 0 3.625 2.23661 3.625 5C3.625 7.76339 5.89516 10 8.7 10ZM12.18 11.4286H11.8039C10.8614 11.875 9.81469 12.1429 8.7 12.1429C7.58531 12.1429 6.54312 11.875 5.59609 11.4286H5.22C2.33812 11.4286 0 13.7321 0 16.5714V17.8571C0 19.0402 0.974219 20 2.175 20H15.225C16.4258 20 17.4 19.0402 17.4 17.8571V16.5714C17.4 13.7321 15.0619 11.4286 12.18 11.4286ZM21.75 10C24.1516 10 26.1 8.08036 26.1 5.71429C26.1 3.34821 24.1516 1.42857 21.75 1.42857C19.3484 1.42857 17.4 3.34821 17.4 5.71429C17.4 8.08036 19.3484 10 21.75 10ZM23.925 11.4286H23.7528C23.123 11.6429 22.4569 11.7857 21.75 11.7857C21.0431 11.7857 20.377 11.6429 19.7472 11.4286H19.575C18.6506 11.4286 17.7987 11.692 17.0511 12.1161C18.1567 13.2902 18.85 14.8482 18.85 16.5714V18.2857C18.85 18.3839 18.8273 18.4777 18.8228 18.5714H26.825C28.0258 18.5714 29 17.6116 29 16.4286C29 13.6652 26.7298 11.4286 23.925 11.4286Z" fill="white"/>
</svg>
