<svg width="65" height="65" viewBox="0 0 65 65" fill="none" xmlns="http://www.w3.org/2000/svg">
<rect x="0.5" y="0.5" width="64" height="64" rx="9.5" fill="white" stroke="#D9D9D9"/>
<path d="M44.5714 30H42.8571V25.5C42.8571 20.2625 37.9857 16 32 16C26.0143 16 21.1429 20.2625 21.1429 25.5V30H19.4286C17.5357 30 16 31.3438 16 33V45C16 46.6562 17.5357 48 19.4286 48H44.5714C46.4643 48 48 46.6562 48 45V33C48 31.3438 46.4643 30 44.5714 30ZM37.1429 30H26.8571V25.5C26.8571 23.0188 29.1643 21 32 21C34.8357 21 37.1429 23.0188 37.1429 25.5V30Z" fill="black" fill-opacity="0.6"/>
</svg>
