<svg width="65" height="65" viewBox="0 0 65 65" fill="none" xmlns="http://www.w3.org/2000/svg">
<rect x="0.5" y="0.5" width="64" height="64" rx="9.5" fill="white" stroke="#D9D9D9"/>
<path d="M48.6786 33.5H31.5179V27.2577C31.5179 24.86 33.7114 22.868 36.4516 22.8438C39.2194 22.8196 41.4821 24.7874 41.4821 27.2032V28.1719C41.4821 28.9772 42.2225 29.625 43.1429 29.625H45.3571C46.2775 29.625 47.0179 28.9772 47.0179 28.1719V27.2032C47.0179 22.1172 42.2779 17.9819 36.4654 18.0001C30.6529 18.0182 25.9821 22.2081 25.9821 27.294V33.5H24.3214C22.4877 33.5 21 34.8018 21 36.4063V46.0938C21 47.6982 22.4877 49 24.3214 49H48.6786C50.5123 49 52 47.6982 52 46.0938V36.4063C52 34.8018 50.5123 33.5 48.6786 33.5ZM39.2679 42.7031C39.2679 44.0412 38.0292 45.125 36.5 45.125C34.9708 45.125 33.7321 44.0412 33.7321 42.7031V39.7969C33.7321 38.4588 34.9708 37.375 36.5 37.375C38.0292 37.375 39.2679 38.4588 39.2679 39.7969V42.7031Z" fill="black" fill-opacity="0.66"/>
</svg>
