<svg width="27" height="30" viewBox="0 0 27 30" fill="none" xmlns="http://www.w3.org/2000/svg">
<path d="M12.3751 0.272604C10.828 0.440638 8.57404 1.0896 8.16844 1.47782C7.96564 1.66903 7.97723 2.05145 8.18003 2.26005C8.41759 2.49761 8.58563 2.48602 9.35627 2.17893C10.0284 1.91239 11.0424 1.63426 11.7667 1.51838C12.0564 1.47202 12.294 1.44305 12.2998 1.44885C12.3056 1.45464 12.3519 1.55314 12.3983 1.66323C12.4794 1.85445 12.4736 1.87762 12.3172 2.11519C12.0332 2.53238 12.0216 2.90322 12.265 3.36676C12.5431 3.89404 13.0067 4.2359 13.9569 4.61253L14.5885 4.86169L14.548 5.04131C14.4321 5.5628 14.4089 5.70765 14.4031 5.9626C14.4031 6.11905 14.3799 6.28708 14.3452 6.34503C14.2814 6.4725 13.9569 6.61156 13.5919 6.66951C12.7865 6.80278 12.3114 7.46333 12.2998 8.46574C12.294 8.95826 12.3403 9.10311 12.6011 9.38124C12.8271 9.63039 13.0878 9.71731 13.5919 9.70572C14.1192 9.69413 14.1945 9.7289 14.7044 10.2098C15.1448 10.6212 15.4693 10.7545 16.0313 10.7545H16.3616L16.5702 11.1253C16.6861 11.3281 16.9294 11.6642 17.1206 11.8728C17.3118 12.0814 17.4973 12.3132 17.5378 12.3827C17.5726 12.4522 17.6247 12.7709 17.6479 13.0838C17.6885 13.5705 17.7174 13.7038 17.8565 13.924C18.3954 14.7931 19.6585 14.5555 20.3481 13.4662C20.435 13.3272 20.5914 12.9795 20.6957 12.6956C20.8406 12.2958 20.9043 12.1741 20.9854 12.1741C21.0608 12.1741 21.2288 12.3653 21.4837 12.7535C22.3992 14.1094 23.1177 14.4397 23.9985 13.9066C24.3171 13.7154 24.3229 13.7154 24.5026 13.8081C24.7575 13.9356 25.2153 13.924 25.5513 13.7733C25.7078 13.7096 25.8468 13.6516 25.8584 13.6516C25.9048 13.6516 25.8179 14.7236 25.7252 15.361C25.4007 17.4875 24.5431 19.4459 23.1988 21.1379C22.9787 21.4218 22.7759 21.6478 22.7585 21.6478C22.7353 21.6478 22.6426 21.5029 22.5499 21.3291C22.3703 20.9814 21.8777 20.4947 21.5359 20.3209C20.0004 19.5386 18.1694 20.4136 17.8217 22.0939C17.7174 22.5922 17.7754 24.093 17.9087 24.4406L18.0187 24.7072L17.8217 24.8752C17.5088 25.1417 17.4799 25.1475 17.3466 24.9679C17.1728 24.7419 16.7961 24.3769 16.518 24.1567L16.2863 23.9771L16.4253 23.612C16.547 23.2876 16.5702 23.1195 16.5933 22.262C16.6281 20.7381 16.4543 20.1528 15.7416 19.4401C15.1564 18.8549 14.5016 18.5768 13.7078 18.5768C12.914 18.5768 12.2766 18.8491 11.674 19.4459C10.9613 20.147 10.7817 20.7381 10.8222 22.262C10.8454 23.0963 10.8686 23.2991 10.9845 23.612L11.1177 23.9829L10.8918 24.1625C10.6194 24.3769 10.2428 24.7477 10.069 24.9679C9.9357 25.1475 9.90673 25.1417 9.59384 24.8752L9.39683 24.7072L9.50692 24.4406C9.64019 24.093 9.69813 22.5922 9.59384 22.0939C9.24618 20.4136 7.41518 19.5386 5.87969 20.3209C5.53783 20.4947 5.04531 20.9814 4.86569 21.3291C4.77298 21.5029 4.68027 21.6478 4.65709 21.6478C4.58756 21.6478 3.90384 20.7612 3.49244 20.1413C2.55376 18.7216 1.97433 17.1688 1.63247 15.1755C1.6035 15.0017 1.60929 14.9901 1.84686 14.9554C1.98013 14.9322 2.25825 14.8511 2.46106 14.7757C2.66386 14.7004 2.86666 14.6367 2.9188 14.6367C2.96516 14.6367 3.25487 14.88 3.56197 15.1755C3.86907 15.471 4.22252 15.7608 4.35 15.8245C4.98737 16.1258 5.63633 15.9346 6.08829 15.3262C6.51127 14.7526 6.49389 14.3875 5.99558 13.3156C5.63633 12.5507 5.62474 12.4522 5.8739 12.3016L6.06511 12.1915L6.51127 12.6203C7.14285 13.2344 7.35144 13.333 8.0004 13.3272C9.5243 13.3156 10.3123 12.4928 9.95308 11.2934C9.64598 10.2909 8.77105 9.58404 7.14864 9.02199C6.15782 8.68592 6.16361 8.68592 6.01296 8.22238C5.70586 7.27791 5.37559 6.95343 4.62812 6.86651C4.16458 6.81437 3.68365 6.70427 3.68365 6.65792C3.68365 6.59998 4.12402 6.02634 4.48326 5.61495C4.91784 5.11084 4.98737 4.96019 4.90045 4.69365C4.81354 4.4387 4.63971 4.32282 4.35 4.32282C4.1414 4.32282 4.07766 4.35758 3.82272 4.62412C2.40891 6.09008 1.1979 8.43097 0.705383 10.6386C0.467817 11.7221 0.409874 12.2726 0.415668 13.5647C0.415668 14.9438 0.496788 15.6275 0.815475 16.8733C1.07042 17.8641 1.34855 18.6058 1.81209 19.5213C2.4205 20.7149 2.99413 21.5493 3.97916 22.6328L4.47747 23.1833L4.51803 23.6294C4.54121 23.8728 4.60495 24.2088 4.66289 24.3827L4.76719 24.6898L4.36158 25.0664C3.85169 25.5357 3.46347 26.1268 3.24908 26.7525C3.09263 27.2045 3.08104 27.3146 3.05787 28.2996C3.04628 28.8848 3.05207 29.4237 3.06946 29.5048C3.09263 29.5802 3.19114 29.696 3.29543 29.7598C3.47506 29.8757 3.64309 29.8757 13.7078 29.8757C23.7725 29.8757 23.9405 29.8757 24.1201 29.7598C24.2244 29.696 24.3229 29.5802 24.3461 29.5048C24.3635 29.4237 24.3693 28.8848 24.3577 28.2996C24.3345 27.3262 24.3229 27.2045 24.1723 26.7757C23.9521 26.1326 23.5755 25.5531 23.0714 25.0838L22.6484 24.6898L22.7527 24.3885C22.8048 24.2262 22.8686 23.8902 22.8918 23.641L22.9381 23.1833L23.4364 22.6328C25.0472 20.8482 26.0496 19.0345 26.6059 16.8675C26.9188 15.6449 26.9999 14.9496 26.9999 13.5358C26.9999 12.1335 26.9246 11.4672 26.6059 10.2098C25.6614 6.48409 23.0656 3.29143 19.5948 1.5937C19.1486 1.37352 18.5634 1.11857 18.2911 1.02007C17.6247 0.776707 16.4253 0.46961 15.6778 0.353724C14.9536 0.243631 13.0704 0.191483 12.3751 0.272604ZM15.0405 1.42567C17.2655 1.698 19.3167 2.52079 21.0665 3.84768C21.6692 4.30544 22.7353 5.3542 23.2104 5.94522C24.265 7.27212 25.0414 8.83078 25.476 10.488C25.6498 11.1659 25.841 12.2958 25.7889 12.3769C25.7367 12.4638 25.0125 12.7419 24.9371 12.7014C24.8966 12.6782 24.7981 12.626 24.717 12.5797C24.6358 12.5333 24.4504 12.4928 24.3056 12.4928C24.0912 12.4928 23.9695 12.5333 23.7261 12.7014C23.5523 12.8173 23.3727 12.9331 23.3147 12.9621C23.1699 13.0432 22.9033 12.7883 22.5035 12.1799C22.0979 11.5599 21.8777 11.3165 21.5591 11.1311C21.0781 10.8472 20.5972 10.8936 20.1916 11.2586C19.9309 11.4962 19.7512 11.8148 19.56 12.4001C19.4673 12.6782 19.3572 12.8694 19.1892 13.049C19.0501 13.1881 18.9169 13.304 18.8821 13.304C18.8531 13.304 18.8068 13.0896 18.7894 12.8231C18.743 12.1335 18.5924 11.7917 18.1115 11.2528C17.8913 11.0036 17.5958 10.5865 17.4625 10.3315C17.1322 9.71731 16.9294 9.59563 16.2167 9.59563H15.73L15.3244 9.21321C14.7855 8.7091 14.4205 8.54107 13.8526 8.54686H13.4123L13.4528 8.33247C13.5224 7.96743 13.5803 7.86313 13.7483 7.82257C14.5016 7.66033 14.8609 7.49809 15.139 7.20838C15.3939 6.94184 15.4982 6.66371 15.562 6.07269C15.5909 5.79457 15.6547 5.42373 15.7068 5.2499C15.8111 4.89066 15.7821 4.62412 15.6083 4.32282C15.4345 4.01572 15.1506 3.8303 14.3915 3.53479C13.8584 3.3262 13.6383 3.21031 13.4702 3.04228L13.2442 2.8163L13.3891 2.59612C13.5224 2.39332 13.6614 1.88921 13.6209 1.75015C13.6093 1.71538 13.5861 1.61688 13.5687 1.52417L13.534 1.36773H14.0439C14.322 1.36773 14.7739 1.3967 15.0405 1.42567ZM3.41132 7.7994C3.55618 7.86313 3.89225 7.94425 4.15878 7.97902C4.42532 8.00799 4.66868 8.06593 4.70924 8.10649C4.74401 8.14705 4.8541 8.4078 4.9584 8.69751C5.23073 9.47974 5.43353 9.64778 6.60977 10.0592C7.88452 10.5053 8.49292 10.8878 8.74787 11.3977C8.92749 11.7627 8.93329 11.8612 8.78843 11.9945C8.65516 12.1161 8.04096 12.232 7.82078 12.1799C7.72228 12.1509 7.46153 11.9423 7.1892 11.67C6.69089 11.1659 6.4823 11.0442 6.11726 11.0442C5.65951 11.0442 4.94681 11.4092 4.72663 11.7627C4.41373 12.2784 4.46009 12.7477 4.93522 13.7791C5.10905 14.1499 5.24811 14.4744 5.24811 14.4976C5.24811 14.5787 4.99896 14.8105 4.91204 14.8105C4.87148 14.8105 4.59915 14.5729 4.30944 14.289C4.01972 13.9993 3.66047 13.698 3.50403 13.6227C3.13319 13.4315 2.69862 13.4315 2.23508 13.6169C2.04966 13.6922 1.81209 13.7733 1.71939 13.7965L1.53976 13.8371V13.2634C1.53976 11.8033 1.93377 10.0592 2.58853 8.58742C2.88983 7.90949 3.01731 7.68351 3.09843 7.68351C3.1274 7.68351 3.26646 7.73566 3.41132 7.7994ZM14.4437 19.8979C14.8203 20.0949 15.081 20.3498 15.2549 20.7091C15.4113 21.0336 15.4171 21.0625 15.4171 22.0534C15.4171 23.2122 15.365 23.4092 14.942 23.8322C14.5827 24.1915 14.2235 24.3363 13.7078 24.3363C13.1921 24.3363 12.8328 24.1915 12.4736 23.8322C12.0738 23.4324 12.0043 23.1948 11.9811 22.1635C11.9695 21.6246 11.9869 21.1668 12.0216 21.0278C12.1607 20.5121 12.6996 19.95 13.2095 19.7936C13.505 19.7009 14.1713 19.7588 14.4437 19.8979ZM7.53107 21.2538C7.84975 21.3465 8.33068 21.8274 8.42339 22.1461C8.5161 22.4706 8.5103 23.7569 8.4118 24.0408C8.05255 25.0316 6.76042 25.2866 6.05352 24.5044C5.73483 24.1567 5.68268 23.9365 5.68268 23.0384C5.68848 22.459 5.71166 22.204 5.77539 22.0534C6.08249 21.3696 6.80678 21.0394 7.53107 21.2538ZM21.0434 21.3928C21.6112 21.7405 21.7966 22.2504 21.7445 23.3049C21.7155 23.9713 21.5996 24.2958 21.2925 24.5855C20.6957 25.1533 19.7223 25.0838 19.2298 24.4406C19.1255 24.3016 19.0154 24.0988 18.9806 23.9771C18.8995 23.6816 18.9053 22.4358 18.9922 22.1461C19.0791 21.8564 19.5658 21.3523 19.8497 21.2596C20.209 21.1379 20.7305 21.1958 21.0434 21.3928ZM12.0216 24.9737C12.1433 25.1186 12.8676 25.4083 13.2906 25.4836C13.6209 25.5415 13.7947 25.5415 14.1308 25.4836C14.5422 25.4083 15.2085 25.1417 15.3997 24.9679C15.4866 24.8868 15.5156 24.8926 15.701 25.0027C16.0081 25.1939 16.5528 25.8139 16.7672 26.2079C17.0511 26.7468 17.1844 27.3436 17.1844 28.091V28.7168H13.7078H10.2312V28.091C10.2312 27.0249 10.5151 26.2137 11.1119 25.5589C11.4017 25.2402 11.8188 24.8926 11.9116 24.8926C11.9347 24.8926 11.9869 24.9273 12.0216 24.9737ZM5.91446 25.8486C6.6793 26.2253 7.46153 26.2253 8.23797 25.8486C8.46974 25.7385 8.67254 25.6458 8.68993 25.6458C8.7131 25.6458 8.86955 25.7791 9.03758 25.9355L9.34468 26.2253L9.23459 26.6193C9.15347 26.8858 9.11291 27.2682 9.08973 27.8593L9.05497 28.7168H6.63295H4.20514V28.1779C4.20514 27.2335 4.44271 26.6309 5.05111 26.0051C5.24811 25.8081 5.43353 25.6458 5.45671 25.6458C5.48568 25.6458 5.68848 25.7385 5.91446 25.8486ZM19.1776 25.8486C19.954 26.2253 20.7363 26.2253 21.5127 25.8428L21.9299 25.6342L22.1037 25.7559C22.3529 25.9355 22.7005 26.3411 22.8802 26.6714C23.1061 27.0886 23.2104 27.5695 23.2104 28.1779V28.7168H20.7826H18.3606L18.3258 27.8882C18.3085 27.3262 18.2621 26.9322 18.181 26.6482L18.0651 26.2311L18.378 25.9355C18.546 25.7791 18.7025 25.6458 18.7256 25.6458C18.743 25.6458 18.9458 25.7385 19.1776 25.8486Z" fill="white"/>
<path d="M5.95501 2.7294C5.63632 3.00173 5.70006 3.48266 6.07669 3.66228C6.65612 3.94041 7.15443 3.21033 6.70247 2.75258C6.48229 2.53239 6.19837 2.5266 5.95501 2.7294Z" fill="white"/>
</svg>
