<svg width="25" height="26" viewBox="0 0 25 26" fill="none" xmlns="http://www.w3.org/2000/svg">
<path d="M1.99477 0.772444C1.46718 0.938803 1.09168 1.26677 0.858773 1.75159L0.711426 2.06055V4.76984V7.47913L0.86828 7.79759C1.05841 8.18735 1.4339 8.54383 1.81891 8.70069L2.08984 8.81001L6.08248 8.82427C8.94862 8.83378 10.1559 8.82427 10.3603 8.78624C11.1208 8.6389 11.6627 8.09704 11.81 7.33653C11.848 7.1369 11.8575 6.30986 11.848 4.57971C11.8338 2.12234 11.8338 2.10808 11.7245 1.83715C11.5676 1.45214 11.2111 1.07664 10.8214 0.886519L10.5029 0.729665L6.3439 0.720159C3.07374 0.710652 2.14212 0.724912 1.99477 0.772444ZM10.2605 2.33147C10.327 2.42654 10.3365 2.73549 10.3365 4.77934C10.3365 7.06085 10.3318 7.1274 10.2415 7.21771C10.1464 7.31277 10.0846 7.31277 6.28211 7.31277C2.8646 7.31277 2.4083 7.30326 2.31324 7.23672L2.20867 7.16542V4.7841C2.20867 2.63092 2.21817 2.39327 2.28947 2.31246C2.36077 2.23166 2.54614 2.22691 6.27736 2.22691H10.1892L10.2605 2.33147Z" fill="white"/>
<path d="M15.18 0.772406C14.6762 0.905494 14.1866 1.34754 13.987 1.83711L13.8777 2.10804L13.8634 7.62169C13.8539 11.6048 13.8634 13.2161 13.9014 13.4205C14.0488 14.181 14.5906 14.7229 15.3511 14.8702C15.5555 14.9083 16.7628 14.9178 19.629 14.9083L23.6216 14.894L23.8925 14.7847C24.2776 14.6278 24.653 14.2713 24.8432 13.8816L25 13.5631V7.81181V2.06051L24.8527 1.75155C24.6626 1.35229 24.3774 1.0671 23.9876 0.881728L23.6691 0.729628L19.5339 0.720121C16.3636 0.715368 15.3464 0.724874 15.18 0.772406ZM23.4172 2.30767C23.498 2.37897 23.5028 2.61187 23.5028 7.81656V13.2494L23.3982 13.3207C23.3032 13.3872 22.8469 13.3968 19.4293 13.3968C15.6268 13.3968 15.565 13.3968 15.47 13.3017C15.3749 13.2066 15.3749 13.1448 15.3749 7.82132C15.3749 3.0254 15.3844 2.4265 15.451 2.33144L15.5223 2.22687H19.4246C22.9894 2.22687 23.3364 2.23162 23.4172 2.30767Z" fill="white"/>
<path d="M2.1136 10.8824C1.58125 10.9869 1.08217 11.391 0.839761 11.9138L0.711426 12.1847V17.936V23.6873L0.858773 23.9963C1.04415 24.3908 1.33884 24.6855 1.73335 24.8709L2.04231 25.0182H6.2726H10.5029L10.8214 24.8614C11.2111 24.6712 11.5676 24.2957 11.7245 23.9107L11.8338 23.6398L11.848 18.1262C11.8575 14.143 11.848 12.5317 11.81 12.3273C11.6674 11.5811 11.1351 11.0392 10.3936 10.8824C10.0894 10.8206 2.44632 10.8158 2.1136 10.8824ZM10.2415 12.4462C10.3365 12.5412 10.3365 12.603 10.3365 17.9265C10.3365 22.7225 10.327 23.3213 10.2605 23.4164L10.1892 23.521H6.28686C2.72201 23.521 2.37503 23.5162 2.29422 23.4402C2.21342 23.3689 2.20867 23.136 2.20867 17.9313V12.4984L2.31324 12.4271C2.4083 12.3606 2.8646 12.3511 6.28211 12.3511C10.0846 12.3511 10.1464 12.3511 10.2415 12.4462Z" fill="white"/>
<path d="M15.2561 16.9807C14.5431 17.1565 14.044 17.6841 13.9014 18.4113C13.8634 18.611 13.8539 19.4333 13.8634 21.1682C13.8777 23.6255 13.8777 23.6398 13.987 23.9107C14.1438 24.2957 14.5003 24.6712 14.8901 24.8614L15.2086 25.0182H19.4389H23.6691L23.9876 24.8661C24.3774 24.6807 24.6626 24.3956 24.8527 23.9963L25 23.6873V20.978V18.2688L24.8432 17.9503C24.653 17.5605 24.2776 17.2041 23.8925 17.0472L23.6216 16.9379L19.5577 16.9284C16.4729 16.9236 15.4367 16.9331 15.2561 16.9807ZM23.3982 18.5112L23.5028 18.5825V20.9638C23.5028 23.117 23.4933 23.3546 23.422 23.4354C23.3507 23.5162 23.1653 23.521 19.4341 23.521H15.5223L15.451 23.4164C15.3844 23.3213 15.3749 23.0124 15.3749 20.9685C15.3749 18.687 15.3797 18.6205 15.47 18.5302C15.565 18.4351 15.6268 18.4351 19.4293 18.4351C22.8469 18.4351 23.3032 18.4446 23.3982 18.5112Z" fill="white"/>
</svg>
