<svg width="26" height="28" viewBox="0 0 26 28" fill="none" xmlns="http://www.w3.org/2000/svg">
<path d="M0.389549 12.9584L8.88402 1.4049C9.64245 0.373339 10.9504 1.11836 10.9465 2.61043L10.9289 9.27272L17.7806 9.35813C18.4506 9.36649 18.9877 10.1158 18.9853 11.0388L18.9678 17.7011C18.9654 18.6241 18.4243 19.3599 17.7543 19.3516L10.9026 19.2662L10.8851 25.9284C10.8812 27.4136 9.57444 28.1329 8.81644 27.0825L0.383339 15.318C-0.0834749 14.6598 -0.0806988 13.6049 0.389549 12.9584ZM15.7851 1.83793L15.7778 4.61389C15.7766 5.07192 16.0477 5.45007 16.3802 5.45421L20.6121 5.50697C21.5038 5.51808 22.2216 6.51947 22.2184 7.74783L22.1833 21.0724C22.1801 22.3008 21.457 23.2842 20.5653 23.2731L16.3334 23.2203C16.0009 23.2162 15.7279 23.5875 15.7267 24.0456L15.7194 26.8215C15.7182 27.2796 15.9892 27.6577 16.3217 27.6618L20.5536 27.7146C23.2238 27.7479 25.3979 24.7907 25.4076 21.1126L25.4427 7.78802C25.4524 4.10988 23.2939 1.09872 20.6238 1.06544L16.3919 1.01269C16.0594 1.00854 15.7863 1.3799 15.7851 1.83793Z" fill="black"/>
</svg>
