<svg width="30" height="23" viewBox="0 0 30 23" fill="none" xmlns="http://www.w3.org/2000/svg">
<path fill-rule="evenodd" clip-rule="evenodd" d="M9.46553 0.0399095C9.45548 0.0618502 9.44731 0.572541 9.44731 1.17478V2.26973H4.72365H0V3.46765V4.66557L7.58034 4.66758C11.7495 4.66866 15.1438 4.67527 15.1232 4.68227C15.1026 4.68927 15.0857 4.72174 15.0857 4.75446C15.0857 4.78712 15.0722 4.82092 15.0557 4.82949C15.0392 4.83807 15.0257 4.87281 15.0257 4.90666C15.0257 4.94052 15.0122 4.9682 14.9957 4.9682C14.9792 4.9682 14.9657 4.9902 14.9657 5.01712C14.9657 5.04404 14.9522 5.07311 14.9357 5.08168C14.9192 5.09026 14.9058 5.125 14.9058 5.15885C14.9058 5.19271 14.8923 5.22039 14.8758 5.22039C14.8593 5.22039 14.8458 5.25444 14.8458 5.29605C14.8458 5.33766 14.8323 5.37171 14.8158 5.37171C14.7993 5.37171 14.7858 5.3944 14.7858 5.42214C14.7858 5.44988 14.7723 5.47258 14.7558 5.47258C14.7393 5.47258 14.7258 5.49459 14.7258 5.52151C14.7258 5.54843 14.7123 5.57749 14.6958 5.58607C14.6793 5.59464 14.6658 5.62938 14.6658 5.66324C14.6658 5.6971 14.6556 5.72478 14.6432 5.72478C14.6307 5.72478 14.6025 5.76166 14.5806 5.80674C14.5588 5.85182 14.5298 5.9114 14.5164 5.93914C14.503 5.96688 14.4704 6.031 14.444 6.08163C14.4175 6.13232 14.3959 6.1919 14.3959 6.21403C14.3959 6.23622 14.3824 6.25438 14.3659 6.25438C14.3494 6.25438 14.3359 6.27708 14.3359 6.30482C14.3359 6.33256 14.3224 6.35526 14.3059 6.35526C14.2894 6.35526 14.2759 6.37795 14.2759 6.4057C14.2759 6.43344 14.2624 6.45613 14.2459 6.45613C14.2294 6.45613 14.2159 6.47883 14.2159 6.50657C14.2159 6.53431 14.2025 6.55701 14.186 6.55701C14.1695 6.55701 14.156 6.57971 14.156 6.60745C14.156 6.63519 14.1425 6.65789 14.126 6.65789C14.1095 6.65789 14.096 6.68059 14.096 6.70833C14.096 6.73607 14.0825 6.75877 14.066 6.75877C14.0495 6.75877 14.036 6.78146 14.036 6.8092C14.036 6.83695 14.0251 6.85964 14.0116 6.85964C13.9982 6.85964 13.9687 6.89936 13.946 6.94791C13.9234 6.99646 13.8938 7.03618 13.8804 7.03618C13.867 7.03618 13.8561 7.05887 13.8561 7.08662C13.8561 7.11436 13.8426 7.13705 13.8261 7.13705C13.8096 7.13705 13.7961 7.15975 13.7961 7.18749C13.7961 7.21523 13.7826 7.23793 13.7661 7.23793C13.7496 7.23793 13.7361 7.25546 13.7361 7.27683C13.7361 7.29821 13.7091 7.34007 13.6761 7.36983C13.6431 7.39959 13.6161 7.43887 13.6161 7.45702C13.6161 7.47524 13.6026 7.49012 13.5861 7.49012C13.5696 7.49012 13.5561 7.51282 13.5561 7.54056C13.5561 7.5683 13.5426 7.591 13.5261 7.591C13.5096 7.591 13.4962 7.6137 13.4962 7.64144C13.4962 7.66918 13.4827 7.69188 13.4662 7.69188C13.4497 7.69188 13.4362 7.71205 13.4362 7.73677C13.4362 7.76142 13.4092 7.79799 13.3762 7.81798C13.3432 7.83796 13.3162 7.86236 13.3162 7.8722C13.3162 7.89924 13.0955 8.20767 13.0692 8.21726C13.0566 8.22192 13.0463 8.24223 13.0463 8.26246C13.0463 8.2827 13.0193 8.32362 12.9863 8.35338C12.9533 8.38314 12.9263 8.42242 12.9263 8.44058C12.9263 8.4588 12.9128 8.47368 12.8963 8.47368C12.8798 8.47368 12.8663 8.49385 12.8663 8.51857C12.8663 8.54322 12.8393 8.57979 12.8063 8.59977C12.7734 8.61976 12.7464 8.65116 12.7464 8.6695C12.7464 8.68791 12.7136 8.73047 12.6736 8.76414C12.6335 8.79781 12.5766 8.85972 12.5471 8.90171C12.5176 8.9437 12.4829 8.97806 12.47 8.97806C12.457 8.97806 12.4465 8.99508 12.4465 9.01589C12.4465 9.0367 12.4352 9.05372 12.4216 9.05372C12.4078 9.05372 12.3775 9.08493 12.3542 9.12307C12.331 9.16122 12.2882 9.21077 12.2592 9.23322C12.2302 9.25566 12.2065 9.28466 12.2065 9.29765C12.2065 9.31064 12.1593 9.36461 12.1016 9.41763C12.0438 9.47066 11.9966 9.52217 11.9966 9.53219C11.9966 9.54814 11.9615 9.58805 11.8471 9.70204C11.8304 9.71881 11.8166 9.74523 11.8166 9.76074C11.8166 9.77631 11.7626 9.83262 11.6967 9.88595C11.6307 9.93929 11.5767 9.98935 11.5767 9.99736C11.5767 10.0053 11.5092 10.0697 11.4267 10.1406C11.3443 10.2114 11.2768 10.2792 11.2768 10.2914C11.2768 10.3035 11.1897 10.3884 11.0834 10.4801L10.89 10.6468L10.7835 10.5572C10.7249 10.508 10.677 10.4552 10.677 10.4398C10.677 10.4245 10.6601 10.3973 10.6395 10.3793C10.6188 10.3613 10.548 10.2917 10.482 10.2246C10.416 10.1574 10.2979 10.0462 10.2196 9.97731C10.1412 9.90846 10.0771 9.84397 10.0771 9.83388C10.0771 9.82385 10.0366 9.77921 9.98715 9.73464C9.93767 9.69006 9.89718 9.64404 9.89718 9.63225C9.89718 9.62046 9.86344 9.58244 9.8222 9.54776C9.78096 9.51309 9.74722 9.47457 9.74722 9.46214C9.74722 9.44966 9.70673 9.40389 9.65725 9.36032C9.60776 9.31676 9.56727 9.26859 9.56727 9.2532C9.56727 9.23782 9.52678 9.1935 9.4773 9.1546C9.42781 9.11569 9.38732 9.07534 9.38732 9.06488C9.38732 9.05441 9.35358 9.0087 9.31235 8.96318C9.27111 8.91772 9.23737 8.87094 9.23737 8.85922C9.23737 8.84749 9.21037 8.82151 9.17738 8.80153C9.14439 8.78154 9.1174 8.74497 9.1174 8.72032C9.1174 8.69561 9.10555 8.67543 9.09108 8.67543C9.07654 8.67543 9.0479 8.64138 9.02743 8.59977C9.00696 8.55816 8.97832 8.52411 8.96377 8.52411C8.9493 8.52411 8.93745 8.50923 8.93745 8.49101C8.93745 8.47286 8.91046 8.43358 8.87747 8.40382C8.84448 8.37406 8.81749 8.33472 8.81749 8.31637C8.81749 8.29802 8.79049 8.26669 8.7575 8.2467C8.72451 8.22672 8.69752 8.19538 8.69752 8.17703C8.69752 8.15869 8.67053 8.11934 8.63754 8.08959C8.60455 8.05983 8.57755 8.02055 8.57755 8.00239C8.57755 7.98417 8.56406 7.96929 8.54756 7.96929C8.53107 7.96929 8.51757 7.95479 8.51757 7.93701C8.51757 7.91929 8.49058 7.8884 8.45759 7.86841C8.4246 7.84843 8.39761 7.81186 8.39761 7.78721C8.39761 7.76249 8.38411 7.74232 8.36761 7.74232C8.35112 7.74232 8.33762 7.71962 8.33762 7.69188C8.33762 7.66414 8.32413 7.64144 8.30763 7.64144C8.29114 7.64144 8.27764 7.61874 8.27764 7.591C8.27764 7.56326 8.26572 7.54056 8.25117 7.54056C8.23655 7.54056 8.21713 7.5207 8.20798 7.49643C8.19884 7.47216 8.1714 7.42392 8.14703 7.38925C8.10609 7.33099 7.9811 7.12602 7.90492 6.99223C7.88723 6.96115 7.86263 6.93562 7.85026 6.93549C7.83789 6.93536 7.82777 6.9196 7.82777 6.90043C7.82777 6.8812 7.7974 6.8587 7.76029 6.85031C7.65577 6.82679 5.05866 6.83247 5.0139 6.85636C4.97078 6.87931 4.99268 7.05017 5.04194 7.07577C5.05656 7.0834 5.06855 7.11165 5.06855 7.13857C5.06855 7.16549 5.08205 7.18749 5.09855 7.18749C5.11504 7.18749 5.12854 7.21019 5.12854 7.23793C5.12854 7.26567 5.14203 7.28837 5.15853 7.28837C5.17502 7.28837 5.18852 7.31107 5.18852 7.33881C5.18852 7.36655 5.20202 7.38925 5.21851 7.38925C5.23501 7.38925 5.2485 7.41194 5.2485 7.43969C5.2485 7.46743 5.262 7.49012 5.2785 7.49012C5.29499 7.49012 5.30849 7.51282 5.30849 7.54056C5.30849 7.5683 5.32198 7.591 5.33848 7.591C5.35497 7.591 5.36847 7.6137 5.36847 7.64144C5.36847 7.66918 5.37942 7.69188 5.39284 7.69188C5.40626 7.69188 5.4358 7.7316 5.45844 7.78015C5.48109 7.82869 5.51063 7.86841 5.52405 7.86841C5.53747 7.86841 5.54842 7.89111 5.54842 7.91885C5.54842 7.94659 5.56191 7.96929 5.57841 7.96929C5.59491 7.96929 5.6084 7.98657 5.6084 8.00775C5.6084 8.05623 5.81662 8.40773 5.85201 8.41901C5.86648 8.42368 5.87832 8.44921 5.87832 8.47576C5.87832 8.50236 5.88927 8.52411 5.90269 8.52411C5.91611 8.52411 5.94565 8.56383 5.9683 8.61238C5.99094 8.66093 6.02048 8.70065 6.03391 8.70065C6.04733 8.70065 6.05827 8.71767 6.05827 8.73848C6.05827 8.75928 6.07177 8.77631 6.08826 8.77631C6.10476 8.77631 6.11826 8.79333 6.11826 8.81414C6.11826 8.83494 6.13175 8.85196 6.14825 8.85196C6.16474 8.85196 6.17824 8.87466 6.17824 8.9024C6.17824 8.93014 6.19174 8.95284 6.20823 8.95284C6.22473 8.95284 6.23822 8.96772 6.23822 8.98594C6.23822 9.0041 6.26521 9.04338 6.2982 9.07314C6.3312 9.1029 6.35819 9.14224 6.35819 9.16059C6.35819 9.17893 6.38518 9.21027 6.41817 9.23025C6.45116 9.25024 6.47815 9.28681 6.47815 9.31146C6.47815 9.33617 6.49165 9.35635 6.50814 9.35635C6.52464 9.35635 6.53814 9.37123 6.53814 9.38945C6.53814 9.40761 6.56513 9.44689 6.59812 9.47665C6.63111 9.5064 6.6581 9.54575 6.6581 9.56409C6.6581 9.58244 6.68509 9.61378 6.71808 9.63376C6.75108 9.65375 6.77807 9.68616 6.77807 9.7057C6.77807 9.72531 6.80311 9.75967 6.83378 9.78211C6.86437 9.80456 6.89901 9.84844 6.91078 9.87965C6.92248 9.91086 6.94467 9.93639 6.96004 9.93639C6.97541 9.93639 6.98801 9.95127 6.98801 9.96949C6.98801 9.98765 7.01163 10.0245 7.04049 10.0515C7.06936 10.0783 7.1121 10.1315 7.13557 10.1697C7.15896 10.2078 7.18933 10.239 7.20305 10.239C7.21669 10.239 7.22794 10.2543 7.22794 10.2731C7.22794 10.2919 7.26843 10.3428 7.31791 10.3864C7.3674 10.4299 7.40789 10.4781 7.40789 10.4935C7.40789 10.5089 7.44838 10.5532 7.49786 10.5921C7.54735 10.631 7.58784 10.6736 7.58784 10.6867C7.58784 10.6999 7.62833 10.7463 7.67781 10.7899C7.7273 10.8334 7.76779 10.8759 7.76779 10.8844C7.76779 10.8928 7.80827 10.9315 7.85776 10.9704C7.90725 11.0093 7.94773 11.0547 7.94773 11.0713C7.94773 11.0878 7.9862 11.1317 8.03329 11.1687C8.0803 11.2056 8.1399 11.2697 8.16577 11.3112C8.19164 11.3526 8.26107 11.4305 8.32015 11.4842C8.37924 11.538 8.4276 11.5898 8.4276 11.5994C8.4276 11.609 8.5088 11.6898 8.608 11.779C8.70719 11.8683 8.83541 11.984 8.89277 12.0362L8.99721 12.1311L8.56211 12.5028C7.88565 13.0807 7.81855 13.136 6.64041 14.085C6.34769 14.3208 6.01261 14.5975 5.89579 14.7001C5.77898 14.8026 5.57046 14.9785 5.4325 15.091C5.29454 15.2034 5.00137 15.4487 4.78094 15.636C4.35026 16.0019 4.32994 16.019 3.62897 16.6069C3.37329 16.8214 3.08035 17.068 2.978 17.1549C2.87566 17.2418 2.63625 17.4379 2.44603 17.5904C2.25573 17.743 2.09993 17.8809 2.09978 17.8969C2.09903 17.9576 4.02245 19.5449 4.09683 19.5449C4.15097 19.5449 4.96246 18.8767 7.52995 16.7178L10.8922 13.8906L10.9839 13.9626C11.0344 14.0022 11.9698 14.7864 13.0627 15.7053C14.4715 16.8899 15.0687 17.3761 15.1149 17.3761C15.1913 17.3761 15.2656 17.3208 15.2656 17.264C15.2656 17.242 15.2776 17.2044 15.2921 17.1803C15.3067 17.1562 15.3353 17.1025 15.3556 17.0608C15.3759 17.0192 15.4045 16.9654 15.4191 16.9414C15.4337 16.9173 15.4456 16.8747 15.4456 16.8468C15.4456 16.8189 15.4561 16.796 15.4689 16.796C15.4818 16.796 15.5169 16.7251 15.547 16.6384C15.6536 16.3316 15.6704 16.2917 15.6928 16.2917C15.7053 16.2917 15.7155 16.264 15.7155 16.2301C15.7155 16.1963 15.729 16.1615 15.7455 16.1529C15.762 16.1444 15.7755 16.1096 15.7755 16.0758C15.7755 16.0419 15.789 16.0142 15.8055 16.0142C15.822 16.0142 15.8355 15.9922 15.8355 15.9653C15.8355 15.9384 15.849 15.9093 15.8655 15.9008C15.882 15.8922 15.8955 15.8574 15.8955 15.8236C15.8955 15.7897 15.909 15.762 15.9255 15.762C15.942 15.762 15.9555 15.728 15.9555 15.6864C15.9555 15.6448 15.9689 15.6107 15.9854 15.6107C16.0019 15.6107 16.0154 15.5887 16.0154 15.5618C16.0154 15.5349 16.0289 15.5058 16.0454 15.4972C16.0619 15.4887 16.0754 15.4539 16.0754 15.4201C16.0754 15.3862 16.0889 15.3585 16.1054 15.3585C16.1219 15.3585 16.1354 15.3245 16.1354 15.2829C16.1354 15.2413 16.1489 15.2072 16.1654 15.2072C16.1819 15.2072 16.1954 15.1852 16.1954 15.1583C16.1954 15.1314 16.2089 15.1023 16.2254 15.0937C16.2419 15.0852 16.2554 15.0611 16.2554 15.0402C16.2554 14.9945 14.1625 13.2352 13.3008 12.5565C12.8095 12.1695 12.7937 12.1377 13.0067 11.9661C13.0779 11.9087 13.1363 11.8484 13.1363 11.8322C13.1363 11.8159 13.1498 11.8026 13.1662 11.8026C13.1827 11.8026 13.1962 11.7905 13.1962 11.7758C13.1962 11.761 13.2637 11.6936 13.3462 11.6261C13.4287 11.5586 13.4962 11.4932 13.4962 11.4809C13.4962 11.4685 13.5636 11.3977 13.6461 11.3235C13.7286 11.2492 13.7961 11.1776 13.7961 11.1643C13.7961 11.1511 13.8198 11.1219 13.8488 11.0994C13.8778 11.077 13.9621 10.9906 14.0362 10.9075C14.1104 10.8242 14.1957 10.7334 14.226 10.7057C14.2563 10.6779 14.3021 10.6211 14.3279 10.5795C14.3537 10.5379 14.3998 10.4855 14.4303 10.463C14.4609 10.4406 14.4859 10.4062 14.4859 10.3866C14.4859 10.3671 14.5129 10.3347 14.5459 10.3147C14.5788 10.2947 14.6058 10.2607 14.6058 10.239C14.6058 10.2174 14.6328 10.1834 14.6658 10.1634C14.6988 10.1434 14.7258 10.1093 14.7258 10.0877C14.7258 10.0661 14.7528 10.032 14.7858 10.0121C14.8188 9.99206 14.8458 9.96294 14.8458 9.94736C14.8458 9.93173 14.8728 9.89844 14.9058 9.87335C14.9387 9.84825 14.9657 9.8166 14.9657 9.80305C14.9657 9.78949 14.9894 9.76005 15.0184 9.7376C15.0474 9.71516 15.0902 9.6656 15.1134 9.62746C15.1368 9.58931 15.1671 9.5581 15.1808 9.5581C15.1944 9.5581 15.2057 9.54058 15.2057 9.5192C15.2057 9.49783 15.2327 9.45597 15.2656 9.42621C15.2986 9.39645 15.3256 9.35717 15.3256 9.33901C15.3256 9.32079 15.3391 9.30591 15.3556 9.30591C15.3721 9.30591 15.3856 9.28838 15.3856 9.26701C15.3856 9.24564 15.4126 9.20377 15.4456 9.17402C15.4786 9.14426 15.5056 9.10498 15.5056 9.08682C15.5056 9.0686 15.5191 9.05372 15.5356 9.05372C15.5521 9.05372 15.5656 9.03184 15.5656 9.00511C15.5656 8.97831 15.5858 8.93941 15.6105 8.91861C15.6353 8.8978 15.6555 8.86861 15.6555 8.85379C15.6555 8.83891 15.669 8.82675 15.6855 8.82675C15.702 8.82675 15.7155 8.81187 15.7155 8.79364C15.7155 8.77549 15.7425 8.73621 15.7755 8.70645C15.8085 8.67669 15.8355 8.63483 15.8355 8.61345C15.8355 8.59208 15.849 8.57455 15.8655 8.57455C15.882 8.57455 15.8955 8.55186 15.8955 8.52411C15.8955 8.49637 15.909 8.47368 15.9255 8.47368C15.942 8.47368 15.9555 8.45098 15.9555 8.42324C15.9555 8.3955 15.9689 8.3728 15.9854 8.3728C16.0019 8.3728 16.0154 8.35527 16.0154 8.3339C16.0154 8.31252 16.0424 8.27066 16.0754 8.2409C16.1084 8.21114 16.1354 8.17186 16.1354 8.15371C16.1354 8.13549 16.1489 8.12061 16.1654 8.12061C16.1819 8.12061 16.1954 8.09791 16.1954 8.07017C16.1954 8.04243 16.2089 8.01973 16.2254 8.01973C16.2419 8.01973 16.2554 7.99703 16.2554 7.96929C16.2554 7.94155 16.2689 7.91885 16.2854 7.91885C16.3019 7.91885 16.3153 7.89615 16.3153 7.86841C16.3153 7.84067 16.3263 7.81798 16.3397 7.81798C16.3531 7.81798 16.3827 7.77825 16.4053 7.72971C16.428 7.68116 16.4575 7.64144 16.4709 7.64144C16.4844 7.64144 16.4953 7.61874 16.4953 7.591C16.4953 7.56326 16.5088 7.54056 16.5253 7.54056C16.5418 7.54056 16.5553 7.52606 16.5553 7.50841C16.5553 7.49069 16.5953 7.40841 16.6443 7.32557C16.6933 7.24266 16.7338 7.15502 16.7343 7.13075C16.7348 7.10648 16.7487 7.08662 16.7652 7.08662C16.7817 7.08662 16.7952 7.07092 16.7952 7.05169C16.7952 7.03246 16.8154 6.98423 16.84 6.94451C16.8646 6.90479 16.8849 6.85239 16.885 6.82812C16.8851 6.80384 16.8953 6.78392 16.9077 6.7838C16.9381 6.78354 17.0052 6.65877 17.0052 6.60241C17.0052 6.57744 17.0186 6.55701 17.0351 6.55701C17.0516 6.55701 17.0651 6.53431 17.0651 6.50657C17.0651 6.47883 17.0786 6.45613 17.0951 6.45613C17.1116 6.45613 17.1251 6.42209 17.1251 6.38048C17.1251 6.33886 17.1386 6.30482 17.1551 6.30482C17.1716 6.30482 17.1851 6.28212 17.1851 6.25438C17.1851 6.22664 17.1986 6.20394 17.2151 6.20394C17.2316 6.20394 17.2451 6.1699 17.2451 6.12828C17.2451 6.08667 17.2586 6.05263 17.2751 6.05263C17.2916 6.05263 17.3051 6.02993 17.3051 6.00219C17.3051 5.97445 17.3186 5.95175 17.3351 5.95175C17.3516 5.95175 17.3651 5.9177 17.3651 5.87609C17.3651 5.83448 17.3785 5.80043 17.395 5.80043C17.4115 5.80043 17.425 5.77774 17.425 5.74999C17.425 5.72225 17.4385 5.69956 17.455 5.69956C17.4715 5.69956 17.485 5.67188 17.485 5.63802C17.485 5.60416 17.4985 5.56942 17.515 5.56085C17.5315 5.55228 17.545 5.51754 17.545 5.48368C17.545 5.44982 17.5585 5.42214 17.575 5.42214C17.5915 5.42214 17.605 5.3881 17.605 5.34649C17.605 5.30487 17.6185 5.27083 17.635 5.27083C17.6515 5.27083 17.665 5.23678 17.665 5.19517C17.665 5.15356 17.6785 5.11951 17.695 5.11951C17.7115 5.11951 17.7249 5.08547 17.7249 5.04385C17.7249 5.00224 17.7384 4.9682 17.7549 4.9682C17.7714 4.9682 17.7849 4.93415 17.7849 4.89254C17.7849 4.85093 17.7984 4.81688 17.8149 4.81688C17.8314 4.81688 17.8449 4.78284 17.8449 4.74122V4.66557H19.8543H21.8638V3.46765V2.26973H17.0951H12.3265V1.13487V0H10.9051C9.63663 0 9.48172 0.00428724 9.46553 0.0399095ZM21.054 9.20504C21.054 9.23278 21.0405 9.25547 21.024 9.25547C21.0075 9.25547 20.994 9.28952 20.994 9.33113C20.994 9.37274 20.983 9.40679 20.9694 9.40679C20.9559 9.40679 20.9265 9.46353 20.904 9.53289C20.8815 9.60224 20.8522 9.65898 20.8387 9.65898C20.8251 9.65898 20.8141 9.69208 20.8141 9.73256C20.8141 9.77297 20.8037 9.80986 20.7911 9.81452C20.7785 9.81912 20.7302 9.91937 20.684 10.0373C20.6376 10.1552 20.5873 10.2714 20.572 10.2955C20.5567 10.3195 20.5441 10.3621 20.5441 10.39C20.5441 10.418 20.5306 10.4408 20.5142 10.4408C20.4977 10.4408 20.4842 10.4748 20.4842 10.5164C20.4842 10.558 20.4707 10.5921 20.4542 10.5921C20.4377 10.5921 20.4242 10.6141 20.4242 10.641C20.4242 10.6679 20.4107 10.697 20.3942 10.7056C20.3777 10.7142 20.3642 10.7489 20.3642 10.7828C20.3642 10.8166 20.3507 10.8443 20.3342 10.8443C20.3177 10.8443 20.3042 10.8783 20.3042 10.9199C20.3042 10.9616 20.2907 10.9956 20.2742 10.9956C20.2577 10.9956 20.2442 11.0183 20.2442 11.046C20.2442 11.0738 20.2307 11.0965 20.2142 11.0965C20.1977 11.0965 20.1842 11.1249 20.1842 11.1595C20.1842 11.1942 20.1707 11.2226 20.1543 11.2226C20.1378 11.2226 20.1243 11.2566 20.1243 11.2982C20.1243 11.3398 20.1108 11.3739 20.0943 11.3739C20.0778 11.3739 20.0643 11.3959 20.0643 11.4228C20.0643 11.4497 20.0508 11.4788 20.0343 11.4874C20.0178 11.496 20.0043 11.5307 20.0043 11.5645C20.0043 11.5984 19.9908 11.6261 19.9743 11.6261C19.9578 11.6261 19.9443 11.6601 19.9443 11.7017C19.9443 11.7434 19.9308 11.7774 19.9143 11.7774C19.8978 11.7774 19.8843 11.7994 19.8843 11.8263C19.8843 11.8532 19.8708 11.8823 19.8543 11.8909C19.8378 11.8995 19.8243 11.9342 19.8243 11.9681C19.8243 12.0019 19.8109 12.0296 19.7944 12.0296C19.7779 12.0296 19.7644 12.0524 19.7644 12.0803C19.7644 12.1083 19.7524 12.1508 19.7379 12.1749C19.7233 12.199 19.6947 12.2528 19.6744 12.2944C19.6541 12.336 19.6255 12.3898 19.6109 12.4139C19.5963 12.438 19.5844 12.4796 19.5844 12.5063C19.5844 12.5331 19.5738 12.5588 19.5609 12.5634C19.5346 12.5728 19.3745 12.9713 19.3745 13.0275C19.3745 13.0473 19.361 13.0636 19.3445 13.0636C19.328 13.0636 19.3145 13.0913 19.3145 13.1251C19.3145 13.159 19.301 13.1937 19.2845 13.2023C19.268 13.2109 19.2545 13.2456 19.2545 13.2795C19.2545 13.3133 19.241 13.341 19.2245 13.341C19.208 13.341 19.1945 13.3694 19.1945 13.404C19.1945 13.4387 19.181 13.4671 19.1645 13.4671C19.148 13.4671 19.1345 13.4955 19.1345 13.5301C19.1345 13.5648 19.121 13.5932 19.1046 13.5932C19.0881 13.5932 19.0746 13.6272 19.0746 13.6688C19.0746 13.7105 19.0611 13.7445 19.0446 13.7445C19.0281 13.7445 19.0146 13.7665 19.0146 13.7934C19.0146 13.8204 19.0011 13.8494 18.9846 13.858C18.9681 13.8666 18.9546 13.9013 18.9546 13.9352C18.9546 13.969 18.9411 13.9967 18.9246 13.9967C18.9081 13.9967 18.8946 14.0307 18.8946 14.0724C18.8946 14.114 18.8811 14.148 18.8646 14.148C18.8481 14.148 18.8346 14.17 18.8346 14.1969C18.8346 14.2239 18.8211 14.2529 18.8046 14.2615C18.7881 14.2701 18.7746 14.2991 18.7746 14.3261C18.7746 14.353 18.7612 14.375 18.7447 14.375C18.7282 14.375 18.7147 14.409 18.7147 14.4506C18.7147 14.4923 18.7036 14.5263 18.6901 14.5263C18.6766 14.5263 18.6472 14.583 18.6247 14.6524C18.6022 14.7218 18.5728 14.7785 18.5593 14.7785C18.5457 14.7785 18.5347 14.8125 18.5347 14.8542C18.5347 14.8958 18.5237 14.9298 18.5101 14.9298C18.4966 14.9298 18.4672 14.9866 18.4447 15.0559C18.4222 15.1253 18.3929 15.182 18.3794 15.182C18.3658 15.182 18.3548 15.2048 18.3548 15.2328C18.3548 15.2607 18.3428 15.3032 18.3283 15.3273C18.2732 15.4184 18.2356 15.5016 18.1888 15.636C18.1622 15.7122 18.128 15.7944 18.1127 15.8185C18.0974 15.8426 18.0848 15.8851 18.0848 15.913C18.0848 15.941 18.0713 15.9638 18.0549 15.9638C18.0384 15.9638 18.0249 15.9978 18.0249 16.0395C18.0249 16.0811 18.0114 16.1151 17.9949 16.1151C17.9784 16.1151 17.9649 16.1378 17.9649 16.1656C17.9649 16.1933 17.9514 16.216 17.9349 16.216C17.9184 16.216 17.9049 16.2437 17.9049 16.2775C17.9049 16.3114 17.8914 16.3461 17.8749 16.3547C17.8584 16.3633 17.8449 16.398 17.8449 16.4319C17.8449 16.4657 17.8314 16.4934 17.8149 16.4934C17.7984 16.4934 17.7849 16.5218 17.7849 16.5565C17.7849 16.5911 17.7714 16.6195 17.7549 16.6195C17.7384 16.6195 17.7249 16.6479 17.7249 16.6826C17.7249 16.7172 17.7115 16.7456 17.695 16.7456C17.6785 16.7456 17.665 16.7796 17.665 16.8213C17.665 16.8629 17.6515 16.8969 17.635 16.8969C17.6185 16.8969 17.605 16.9189 17.605 16.9458C17.605 16.9728 17.5915 17.0018 17.575 17.0104C17.5585 17.019 17.545 17.0537 17.545 17.0876C17.545 17.1214 17.5315 17.1491 17.515 17.1491C17.4985 17.1491 17.485 17.1832 17.485 17.2248C17.485 17.2664 17.4715 17.3004 17.455 17.3004C17.4385 17.3004 17.425 17.3176 17.425 17.3386C17.425 17.3596 17.4094 17.4021 17.3904 17.4331C17.3157 17.5546 17.3051 17.5789 17.3051 17.628C17.3051 17.6559 17.2916 17.6787 17.2751 17.6787C17.2586 17.6787 17.2451 17.7064 17.2451 17.7402C17.2451 17.7741 17.2316 17.8088 17.2151 17.8174C17.1986 17.826 17.1851 17.8551 17.1851 17.882C17.1851 17.9089 17.1716 17.9309 17.1551 17.9309C17.1386 17.9309 17.1251 17.965 17.1251 18.0066C17.1251 18.0482 17.1145 18.0822 17.1017 18.0822C17.0888 18.0822 17.0595 18.1361 17.0366 18.202C17.0138 18.2679 16.9848 18.3388 16.9724 18.3596C16.9215 18.4444 16.8552 18.616 16.8552 18.6628C16.8552 18.6903 16.8417 18.7127 16.8252 18.7127C16.8087 18.7127 16.7952 18.7467 16.7952 18.7884C16.7952 18.83 16.7817 18.864 16.7652 18.864C16.7487 18.864 16.7352 18.886 16.7352 18.9129C16.7352 18.9399 16.7217 18.9689 16.7052 18.9775C16.6887 18.9861 16.6752 19.0208 16.6752 19.0547C16.6752 19.0885 16.6618 19.1162 16.6453 19.1162C16.6288 19.1162 16.6153 19.1503 16.6153 19.1919C16.6153 19.2335 16.6018 19.2675 16.5853 19.2675C16.5688 19.2675 16.5553 19.2902 16.5553 19.318C16.5553 19.3457 16.5418 19.3684 16.5253 19.3684C16.5088 19.3684 16.4953 19.3961 16.4953 19.4299C16.4953 19.4638 16.4818 19.4985 16.4653 19.5071C16.4488 19.5157 16.4353 19.5504 16.4353 19.5843C16.4353 19.6181 16.4218 19.6458 16.4053 19.6458C16.3888 19.6458 16.3753 19.6742 16.3753 19.7089C16.3753 19.7435 16.3618 19.7719 16.3453 19.7719C16.3288 19.7719 16.3153 19.8003 16.3153 19.835C16.3153 19.8696 16.3019 19.898 16.2854 19.898C16.2689 19.898 16.2554 19.9321 16.2554 19.9737C16.2554 20.0153 16.2419 20.0493 16.2254 20.0493C16.2089 20.0493 16.1954 20.0713 16.1954 20.0982C16.1954 20.1252 16.1819 20.1542 16.1654 20.1628C16.1489 20.1714 16.1354 20.2061 16.1354 20.24C16.1354 20.2738 16.1219 20.3015 16.1054 20.3015C16.0889 20.3015 16.0754 20.3356 16.0754 20.3772C16.0754 20.4188 16.0619 20.4528 16.0454 20.4528C16.0289 20.4528 16.0154 20.47 16.0154 20.491C16.0154 20.512 16.0019 20.5517 15.9854 20.5792C15.9689 20.6068 15.942 20.6519 15.9255 20.6795C15.909 20.707 15.8955 20.7524 15.8955 20.7804C15.8955 20.8083 15.882 20.8311 15.8655 20.8311C15.849 20.8311 15.8355 20.8539 15.8355 20.8819C15.8355 20.9098 15.822 20.9552 15.8055 20.9827C15.789 21.0103 15.762 21.0554 15.7455 21.083C15.729 21.1105 15.7155 21.1489 15.7155 21.1684C15.7155 21.1878 15.6954 21.2361 15.6707 21.2759C15.6461 21.3156 15.6258 21.3793 15.6257 21.4175C15.6256 21.4556 15.6121 21.4868 15.5956 21.4868C15.5791 21.4868 15.5656 21.5152 15.5656 21.5499C15.5656 21.5845 15.5521 21.6129 15.5356 21.6129C15.5191 21.6129 15.5056 21.6413 15.5056 21.676C15.5056 21.7106 15.4921 21.739 15.4756 21.739C15.4591 21.739 15.4456 21.7674 15.4456 21.8021C15.4456 21.8367 15.4321 21.8651 15.4156 21.8651C15.3991 21.8651 15.3856 21.8992 15.3856 21.9408C15.3856 21.9824 15.3721 22.0164 15.3556 22.0164C15.3391 22.0164 15.3256 22.0384 15.3256 22.0653C15.3256 22.0923 15.3121 22.1213 15.2956 22.1299C15.2791 22.1385 15.2656 22.1732 15.2656 22.2071C15.2656 22.2409 15.2522 22.2686 15.2357 22.2686C15.2192 22.2686 15.2057 22.3027 15.2057 22.3443C15.2057 22.3859 15.1922 22.4199 15.1757 22.4199C15.1592 22.4199 15.1457 22.4371 15.1457 22.4581C15.1457 22.4791 15.1322 22.5188 15.1157 22.5463C15.0992 22.5739 15.0722 22.619 15.0557 22.6466C15.0392 22.6741 15.0257 22.7195 15.0257 22.7475C15.0257 22.7754 15.0122 22.7982 14.9957 22.7982C14.9792 22.7982 14.9657 22.8436 14.9657 22.8991V23H16.3645C17.8953 23 17.8415 23.0053 17.8439 22.855C17.8445 22.8238 17.8584 22.7982 17.8749 22.7982C17.8914 22.7982 17.9049 22.7651 17.9049 22.7246C17.9049 22.6842 17.915 22.6473 17.9274 22.6427C17.9551 22.6323 18.0513 22.4196 18.0936 22.2749C18.1109 22.216 18.1361 22.1677 18.1499 22.1677C18.1636 22.1677 18.1748 22.1337 18.1748 22.0921C18.1748 22.0505 18.1883 22.0164 18.2048 22.0164C18.2213 22.0164 18.2348 21.9824 18.2348 21.9408C18.2348 21.8992 18.2483 21.8651 18.2648 21.8651C18.2813 21.8651 18.2948 21.8424 18.2948 21.8147C18.2948 21.7869 18.3083 21.7642 18.3248 21.7642C18.3413 21.7642 18.3548 21.7302 18.3548 21.6886C18.3548 21.647 18.3683 21.6129 18.3848 21.6129C18.4013 21.6129 18.4148 21.5852 18.4148 21.5514C18.4148 21.5175 18.4282 21.4828 18.4447 21.4742C18.4612 21.4656 18.4747 21.4366 18.4747 21.4096C18.4747 21.3827 18.4882 21.3607 18.5047 21.3607C18.5212 21.3607 18.5347 21.3324 18.5347 21.2977C18.5347 21.263 18.5482 21.2346 18.5647 21.2346C18.5812 21.2346 18.5947 21.207 18.5947 21.1731C18.5947 21.1392 18.6082 21.1045 18.6247 21.0959C18.6412 21.0873 18.6547 21.0583 18.6547 21.0314C18.6547 21.0044 18.6682 20.9824 18.6847 20.9824C18.7012 20.9824 18.7147 20.9484 18.7147 20.9068C18.7147 20.8652 18.7282 20.8311 18.7447 20.8311C18.7612 20.8311 18.7746 20.8034 18.7746 20.7696C18.7746 20.7357 18.7881 20.701 18.8046 20.6924C18.8211 20.6838 18.8346 20.6548 18.8346 20.6279C18.8346 20.6009 18.8481 20.5789 18.8646 20.5789C18.8811 20.5789 18.8946 20.5449 18.8946 20.5033C18.8946 20.4617 18.9081 20.4276 18.9246 20.4276C18.9411 20.4276 18.9546 20.3992 18.9546 20.3646C18.9546 20.3299 18.9681 20.3015 18.9846 20.3015C19.0011 20.3015 19.0146 20.2795 19.0146 20.2526C19.0146 20.2257 19.0281 20.1966 19.0446 20.188C19.0611 20.1795 19.0746 20.1447 19.0746 20.1109C19.0746 20.077 19.0881 20.0493 19.1046 20.0493C19.121 20.0493 19.1345 20.0153 19.1345 19.9737C19.1345 19.9321 19.1447 19.898 19.1573 19.898C19.1697 19.898 19.1975 19.8498 19.2189 19.7908C19.2403 19.7319 19.2739 19.6524 19.2935 19.6143L19.3291 19.5449H22.4936H25.6581L25.6937 19.6143C25.7132 19.6524 25.7468 19.7319 25.7683 19.7908C25.7897 19.8498 25.8175 19.898 25.8299 19.898C25.8424 19.898 25.8526 19.9321 25.8526 19.9737C25.8526 20.0153 25.8661 20.0493 25.8826 20.0493C25.8991 20.0493 25.9126 20.077 25.9126 20.1109C25.9126 20.1447 25.9261 20.1795 25.9426 20.188C25.9591 20.1966 25.9726 20.2257 25.9726 20.2526C25.9726 20.2795 25.9861 20.3015 26.0026 20.3015C26.0191 20.3015 26.0326 20.3299 26.0326 20.3646C26.0326 20.3992 26.0461 20.4276 26.0626 20.4276C26.0791 20.4276 26.0926 20.4617 26.0926 20.5033C26.0926 20.5449 26.1061 20.5789 26.1226 20.5789C26.139 20.5789 26.1525 20.6009 26.1525 20.6279C26.1525 20.6548 26.166 20.6838 26.1825 20.6924C26.199 20.701 26.2125 20.7357 26.2125 20.7696C26.2125 20.8034 26.226 20.8311 26.2425 20.8311C26.259 20.8311 26.2725 20.8652 26.2725 20.9068C26.2725 20.9484 26.286 20.9824 26.3025 20.9824C26.319 20.9824 26.3325 21.0044 26.3325 21.0314C26.3325 21.0583 26.346 21.0873 26.3625 21.0959C26.379 21.1045 26.3925 21.1392 26.3925 21.1731C26.3925 21.207 26.406 21.2346 26.4225 21.2346C26.439 21.2346 26.4525 21.263 26.4525 21.2977C26.4525 21.3324 26.466 21.3607 26.4825 21.3607C26.4989 21.3607 26.5124 21.3827 26.5124 21.4096C26.5124 21.4366 26.5259 21.4656 26.5424 21.4742C26.5589 21.4828 26.5724 21.5175 26.5724 21.5514C26.5724 21.5852 26.5859 21.6129 26.6024 21.6129C26.6189 21.6129 26.6324 21.647 26.6324 21.6886C26.6324 21.7302 26.6459 21.7642 26.6624 21.7642C26.6789 21.7642 26.6924 21.7869 26.6924 21.8147C26.6924 21.8424 26.7059 21.8651 26.7224 21.8651C26.7389 21.8651 26.7524 21.8992 26.7524 21.9408C26.7524 21.9824 26.7659 22.0164 26.7824 22.0164C26.7989 22.0164 26.8124 22.0505 26.8124 22.0921C26.8124 22.1337 26.8236 22.1677 26.8373 22.1677C26.851 22.1677 26.8763 22.216 26.8936 22.2749C26.9358 22.4196 27.032 22.6323 27.0598 22.6427C27.0722 22.6473 27.0823 22.6842 27.0823 22.7246C27.0823 22.7651 27.0958 22.7982 27.1123 22.7982C27.1288 22.7982 27.1427 22.8238 27.1432 22.855C27.1457 23.0052 27.093 23 28.6119 23H30L29.9813 22.849C29.9709 22.7659 29.9466 22.6723 29.9273 22.6409C29.8542 22.5224 29.8415 22.4952 29.8415 22.4581C29.8415 22.4371 29.828 22.4199 29.8115 22.4199C29.795 22.4199 29.7815 22.3859 29.7815 22.3443C29.7815 22.3027 29.768 22.2686 29.7515 22.2686C29.735 22.2686 29.7215 22.2409 29.7215 22.2071C29.7215 22.1732 29.708 22.1385 29.6915 22.1299C29.675 22.1213 29.6615 22.0923 29.6615 22.0653C29.6615 22.0384 29.6481 22.0164 29.6316 22.0164C29.6151 22.0164 29.6016 21.9824 29.6016 21.9408C29.6016 21.8992 29.5881 21.8651 29.5716 21.8651C29.5551 21.8651 29.5416 21.8367 29.5416 21.8021C29.5416 21.7674 29.5281 21.739 29.5116 21.739C29.4951 21.739 29.4816 21.7106 29.4816 21.676C29.4816 21.6413 29.4681 21.6129 29.4516 21.6129C29.4351 21.6129 29.4216 21.5845 29.4216 21.5499C29.4216 21.5152 29.4081 21.4868 29.3916 21.4868C29.3751 21.4868 29.3616 21.4556 29.3615 21.4175C29.3613 21.3793 29.3411 21.3156 29.3165 21.2759C29.2918 21.2361 29.2717 21.1878 29.2717 21.1684C29.2717 21.1489 29.2582 21.1105 29.2417 21.083C29.2252 21.0554 29.1982 21.0103 29.1817 20.9827C29.1652 20.9552 29.1517 20.9098 29.1517 20.8819C29.1517 20.8539 29.1382 20.8311 29.1217 20.8311C29.1052 20.8311 29.0917 20.8083 29.0917 20.7804C29.0917 20.7524 29.0782 20.707 29.0617 20.6795C29.0452 20.6519 29.0182 20.6068 29.0017 20.5792C28.9852 20.5517 28.9717 20.512 28.9717 20.491C28.9717 20.47 28.9582 20.4528 28.9417 20.4528C28.9253 20.4528 28.9118 20.4188 28.9118 20.3772C28.9118 20.3356 28.8983 20.3015 28.8818 20.3015C28.8653 20.3015 28.8518 20.2738 28.8518 20.24C28.8518 20.2061 28.8383 20.1714 28.8218 20.1628C28.8053 20.1542 28.7918 20.1252 28.7918 20.0982C28.7918 20.0713 28.7783 20.0493 28.7618 20.0493C28.7453 20.0493 28.7318 20.0153 28.7318 19.9737C28.7318 19.9321 28.7183 19.898 28.7018 19.898C28.6853 19.898 28.6718 19.8696 28.6718 19.835C28.6718 19.8003 28.6583 19.7719 28.6418 19.7719C28.6253 19.7719 28.6118 19.7435 28.6118 19.7089C28.6118 19.6742 28.5983 19.6458 28.5819 19.6458C28.5654 19.6458 28.5519 19.6181 28.5519 19.5843C28.5519 19.5504 28.5384 19.5157 28.5219 19.5071C28.5054 19.4985 28.4919 19.4638 28.4919 19.4299C28.4919 19.3961 28.4784 19.3684 28.4619 19.3684C28.4454 19.3684 28.4319 19.3457 28.4319 19.318C28.4319 19.2902 28.4184 19.2675 28.4019 19.2675C28.3854 19.2675 28.3719 19.2335 28.3719 19.1919C28.3719 19.1503 28.3584 19.1162 28.3419 19.1162C28.3254 19.1162 28.3119 19.0885 28.3119 19.0547C28.3119 19.0208 28.2984 18.9861 28.2819 18.9775C28.2654 18.9689 28.2519 18.9399 28.2519 18.9129C28.2519 18.886 28.2385 18.864 28.222 18.864C28.2055 18.864 28.192 18.83 28.192 18.7884C28.192 18.7467 28.1785 18.7127 28.162 18.7127C28.1455 18.7127 28.132 18.6903 28.132 18.6628C28.132 18.616 28.0657 18.4444 28.0148 18.3596C28.0023 18.3388 27.9734 18.2679 27.9505 18.202C27.9277 18.1361 27.8984 18.0822 27.8855 18.0822C27.8726 18.0822 27.8621 18.0482 27.8621 18.0066C27.8621 17.965 27.8486 17.9309 27.8321 17.9309C27.8156 17.9309 27.8021 17.9089 27.8021 17.882C27.8021 17.8551 27.7886 17.826 27.7721 17.8174C27.7556 17.8088 27.7421 17.7741 27.7421 17.7402C27.7421 17.7064 27.7286 17.6787 27.7121 17.6787C27.6956 17.6787 27.6821 17.6559 27.6821 17.628C27.6821 17.5789 27.6715 17.5546 27.5968 17.4331C27.5777 17.4021 27.5621 17.3596 27.5621 17.3386C27.5621 17.3176 27.5486 17.3004 27.5322 17.3004C27.5157 17.3004 27.5022 17.2664 27.5022 17.2248C27.5022 17.1832 27.4887 17.1491 27.4722 17.1491C27.4557 17.1491 27.4422 17.1214 27.4422 17.0876C27.4422 17.0537 27.4287 17.019 27.4122 17.0104C27.3957 17.0018 27.3822 16.9728 27.3822 16.9458C27.3822 16.9189 27.3687 16.8969 27.3522 16.8969C27.3357 16.8969 27.3222 16.8629 27.3222 16.8213C27.3222 16.7796 27.3087 16.7456 27.2922 16.7456C27.2757 16.7456 27.2622 16.7172 27.2622 16.6826C27.2622 16.6479 27.2487 16.6195 27.2322 16.6195C27.2157 16.6195 27.2022 16.5911 27.2022 16.5565C27.2022 16.5218 27.1887 16.4934 27.1723 16.4934C27.1558 16.4934 27.1423 16.4657 27.1423 16.4319C27.1423 16.398 27.1288 16.3633 27.1123 16.3547C27.0958 16.3461 27.0823 16.3114 27.0823 16.2775C27.0823 16.2437 27.0688 16.216 27.0523 16.216C27.0358 16.216 27.0223 16.1933 27.0223 16.1656C27.0223 16.1378 27.0088 16.1151 26.9923 16.1151C26.9758 16.1151 26.9623 16.0811 26.9623 16.0395C26.9623 15.9978 26.9488 15.9638 26.9323 15.9638C26.9158 15.9638 26.9023 15.941 26.9023 15.913C26.9023 15.8851 26.8898 15.8426 26.8745 15.8185C26.8592 15.7944 26.825 15.7122 26.7983 15.636C26.7515 15.5016 26.714 15.4184 26.6589 15.3273C26.6443 15.3032 26.6324 15.2607 26.6324 15.2328C26.6324 15.2048 26.6214 15.182 26.6078 15.182C26.5943 15.182 26.5649 15.1253 26.5424 15.0559C26.5199 14.9866 26.4905 14.9298 26.4771 14.9298C26.4635 14.9298 26.4525 14.8958 26.4525 14.8542C26.4525 14.8125 26.4414 14.7785 26.4279 14.7785C26.4144 14.7785 26.385 14.7218 26.3625 14.6524C26.34 14.583 26.3106 14.5263 26.2971 14.5263C26.2835 14.5263 26.2725 14.4923 26.2725 14.4506C26.2725 14.409 26.259 14.375 26.2425 14.375C26.226 14.375 26.2125 14.353 26.2125 14.3261C26.2125 14.2991 26.199 14.2701 26.1825 14.2615C26.166 14.2529 26.1525 14.2239 26.1525 14.1969C26.1525 14.17 26.139 14.148 26.1226 14.148C26.1061 14.148 26.0926 14.114 26.0926 14.0724C26.0926 14.0307 26.0791 13.9967 26.0626 13.9967C26.0461 13.9967 26.0326 13.969 26.0326 13.9352C26.0326 13.9013 26.0191 13.8666 26.0026 13.858C25.9861 13.8494 25.9726 13.8204 25.9726 13.7934C25.9726 13.7665 25.9591 13.7445 25.9426 13.7445C25.9261 13.7445 25.9126 13.7105 25.9126 13.6688C25.9126 13.6272 25.8991 13.5932 25.8826 13.5932C25.8661 13.5932 25.8526 13.5648 25.8526 13.5301C25.8526 13.4955 25.8391 13.4671 25.8226 13.4671C25.8061 13.4671 25.7926 13.4387 25.7926 13.404C25.7926 13.3694 25.7792 13.341 25.7627 13.341C25.7462 13.341 25.7327 13.3133 25.7327 13.2795C25.7327 13.2456 25.7192 13.2109 25.7027 13.2023C25.6862 13.1937 25.6727 13.159 25.6727 13.1251C25.6727 13.0913 25.6592 13.0636 25.6427 13.0636C25.6262 13.0636 25.6127 13.0473 25.6127 13.0275C25.6127 12.9713 25.4526 12.5728 25.4262 12.5634C25.4133 12.5588 25.4028 12.5331 25.4028 12.5063C25.4028 12.4796 25.3908 12.438 25.3763 12.4139C25.3617 12.3898 25.3331 12.336 25.3128 12.2944C25.2925 12.2528 25.2639 12.199 25.2493 12.1749C25.2347 12.1508 25.2228 12.1083 25.2228 12.0803C25.2228 12.0524 25.2093 12.0296 25.1928 12.0296C25.1763 12.0296 25.1628 12.0019 25.1628 11.9681C25.1628 11.9342 25.1493 11.8995 25.1328 11.8909C25.1163 11.8823 25.1028 11.8532 25.1028 11.8263C25.1028 11.7994 25.0893 11.7774 25.0729 11.7774C25.0564 11.7774 25.0429 11.7434 25.0429 11.7017C25.0429 11.6601 25.0294 11.6261 25.0129 11.6261C24.9964 11.6261 24.9829 11.5984 24.9829 11.5645C24.9829 11.5307 24.9694 11.496 24.9529 11.4874C24.9364 11.4788 24.9229 11.4497 24.9229 11.4228C24.9229 11.3959 24.9094 11.3739 24.8929 11.3739C24.8764 11.3739 24.8629 11.3398 24.8629 11.2982C24.8629 11.2566 24.8494 11.2226 24.8329 11.2226C24.8164 11.2226 24.8029 11.1942 24.8029 11.1595C24.8029 11.1249 24.7894 11.0965 24.7729 11.0965C24.7564 11.0965 24.7429 11.0738 24.7429 11.046C24.7429 11.0183 24.7295 10.9956 24.713 10.9956C24.6965 10.9956 24.683 10.9616 24.683 10.9199C24.683 10.8783 24.6695 10.8443 24.653 10.8443C24.6365 10.8443 24.623 10.8166 24.623 10.7828C24.623 10.7489 24.6095 10.7142 24.593 10.7056C24.5765 10.697 24.563 10.6679 24.563 10.641C24.563 10.6141 24.5495 10.5921 24.533 10.5921C24.5165 10.5921 24.503 10.558 24.503 10.5164C24.503 10.4748 24.4895 10.4408 24.473 10.4408C24.4565 10.4408 24.443 10.418 24.443 10.39C24.443 10.3621 24.4305 10.3195 24.4152 10.2955C24.3999 10.2714 24.3495 10.1552 24.3032 10.0373C24.2569 9.91937 24.2087 9.81912 24.1961 9.81452C24.1835 9.80986 24.1731 9.77297 24.1731 9.73256C24.1731 9.69208 24.1621 9.65898 24.1485 9.65898C24.135 9.65898 24.1056 9.60224 24.0831 9.53289C24.0606 9.46353 24.0312 9.40679 24.0178 9.40679C24.0042 9.40679 23.9932 9.37274 23.9932 9.33113C23.9932 9.28952 23.9797 9.25547 23.9632 9.25547C23.9467 9.25547 23.9332 9.23278 23.9332 9.20504C23.9332 9.15529 23.9132 9.1546 22.4936 9.1546C21.074 9.1546 21.054 9.15529 21.054 9.20504ZM22.5236 12.4835C22.5236 12.5252 22.5371 12.5592 22.5536 12.5592C22.5701 12.5592 22.5836 12.5932 22.5836 12.6349C22.5836 12.6765 22.5971 12.7105 22.6136 12.7105C22.6301 12.7105 22.6435 12.7332 22.6435 12.761C22.6435 12.7887 22.657 12.8114 22.6735 12.8114C22.69 12.8114 22.7035 12.8454 22.7035 12.887C22.7035 12.9287 22.717 12.9627 22.7335 12.9627C22.75 12.9627 22.7635 12.9911 22.7635 13.0258C22.7635 13.0604 22.777 13.0888 22.7935 13.0888C22.81 13.0888 22.8235 13.1108 22.8235 13.1377C22.8235 13.1646 22.837 13.1937 22.8535 13.2023C22.87 13.2109 22.8835 13.2456 22.8835 13.2795C22.8835 13.3133 22.897 13.341 22.9135 13.341C22.93 13.341 22.9435 13.375 22.9435 13.4167C22.9435 13.4583 22.957 13.4923 22.9735 13.4923C22.9899 13.4923 23.0034 13.5143 23.0034 13.5412C23.0034 13.5682 23.0169 13.5972 23.0334 13.6058C23.0499 13.6144 23.0634 13.6491 23.0634 13.683C23.0634 13.7168 23.0769 13.7445 23.0934 13.7445C23.1099 13.7445 23.1235 13.7757 23.1236 13.8139C23.1237 13.852 23.144 13.9157 23.1685 13.9555C23.1932 13.9952 23.2134 14.0491 23.2134 14.0753C23.2134 14.1014 23.2269 14.1228 23.2434 14.1228C23.2599 14.1228 23.2734 14.1456 23.2734 14.1735C23.2734 14.2226 23.284 14.2469 23.3587 14.3684C23.3777 14.3994 23.3933 14.4476 23.3933 14.4755C23.3933 14.5035 23.4068 14.5263 23.4233 14.5263C23.4398 14.5263 23.4533 14.554 23.4533 14.5878C23.4533 14.6217 23.4668 14.6564 23.4833 14.665C23.4998 14.6736 23.5133 14.7026 23.5133 14.7296C23.5133 14.7565 23.5268 14.7785 23.5433 14.7785C23.5598 14.7785 23.5733 14.8125 23.5733 14.8542C23.5733 14.8958 23.5868 14.9298 23.6033 14.9298C23.6198 14.9298 23.6333 14.9582 23.6333 14.9929C23.6333 15.0275 23.6468 15.0559 23.6633 15.0559C23.6798 15.0559 23.6932 15.0779 23.6932 15.1048C23.6932 15.1318 23.7067 15.1608 23.7232 15.1694C23.7397 15.178 23.7532 15.2127 23.7532 15.2466C23.7532 15.2804 23.7667 15.3081 23.7832 15.3081C23.7997 15.3081 23.8132 15.3421 23.8132 15.3838C23.8132 15.4254 23.8267 15.4594 23.8432 15.4594C23.8597 15.4594 23.8732 15.4814 23.8732 15.5083C23.8732 15.5353 23.8867 15.5643 23.9032 15.5729C23.9197 15.5815 23.9332 15.6162 23.9332 15.6501C23.9332 15.6839 23.9467 15.7116 23.9632 15.7116C23.9797 15.7116 23.9932 15.7457 23.9932 15.7873C23.9932 15.8289 24.0067 15.8629 24.0232 15.8629C24.0396 15.8629 24.0531 15.8849 24.0531 15.9118C24.0531 15.9388 24.0666 15.9678 24.0831 15.9764C24.0996 15.985 24.1131 16.0197 24.1131 16.0536C24.1131 16.0874 24.1266 16.1151 24.1431 16.1151C24.1596 16.1151 24.1731 16.1435 24.1731 16.1782C24.1731 16.2128 24.1866 16.2412 24.2031 16.2412C24.2196 16.2412 24.2331 16.2632 24.2331 16.2901C24.2331 16.3171 24.2466 16.3461 24.2631 16.3547C24.2796 16.3633 24.2931 16.398 24.2931 16.4319C24.2931 16.4657 24.3066 16.4934 24.3231 16.4934C24.3396 16.4934 24.3531 16.5246 24.3532 16.5628C24.3534 16.6009 24.3736 16.6646 24.3982 16.7044C24.4229 16.7441 24.443 16.7957 24.443 16.8191C24.443 16.8425 24.4542 16.8724 24.4678 16.8856C24.4814 16.8987 24.5109 16.9606 24.5332 17.023C24.5555 17.0854 24.5865 17.1507 24.6021 17.168C24.6246 17.1932 24.1981 17.1995 22.4936 17.1995C20.7891 17.1995 20.3625 17.1932 20.3851 17.168C20.4006 17.1507 20.4317 17.0854 20.454 17.023C20.4763 16.9606 20.5058 16.8987 20.5194 16.8856C20.533 16.8724 20.5441 16.8425 20.5441 16.8191C20.5441 16.7957 20.5643 16.7441 20.589 16.7044C20.6136 16.6646 20.6338 16.6009 20.634 16.5628C20.634 16.5246 20.6476 16.4934 20.6641 16.4934C20.6806 16.4934 20.6941 16.4657 20.6941 16.4319C20.6941 16.398 20.7076 16.3633 20.7241 16.3547C20.7406 16.3461 20.7541 16.3171 20.7541 16.2901C20.7541 16.2632 20.7676 16.2412 20.7841 16.2412C20.8006 16.2412 20.8141 16.2128 20.8141 16.1782C20.8141 16.1435 20.8276 16.1151 20.8441 16.1151C20.8606 16.1151 20.8741 16.0874 20.8741 16.0536C20.8741 16.0197 20.8875 15.985 20.904 15.9764C20.9205 15.9678 20.934 15.9388 20.934 15.9118C20.934 15.8849 20.9475 15.8629 20.964 15.8629C20.9805 15.8629 20.994 15.8289 20.994 15.7873C20.994 15.7457 21.0075 15.7116 21.024 15.7116C21.0405 15.7116 21.054 15.6839 21.054 15.6501C21.054 15.6162 21.0675 15.5815 21.084 15.5729C21.1005 15.5643 21.114 15.5353 21.114 15.5083C21.114 15.4814 21.1275 15.4594 21.144 15.4594C21.1605 15.4594 21.174 15.4254 21.174 15.3838C21.174 15.3421 21.1875 15.3081 21.204 15.3081C21.2204 15.3081 21.2339 15.2804 21.2339 15.2466C21.2339 15.2127 21.2474 15.178 21.2639 15.1694C21.2804 15.1608 21.2939 15.1318 21.2939 15.1048C21.2939 15.0779 21.3074 15.0559 21.3239 15.0559C21.3404 15.0559 21.3539 15.0275 21.3539 14.9929C21.3539 14.9582 21.3674 14.9298 21.3839 14.9298C21.4004 14.9298 21.4139 14.8958 21.4139 14.8542C21.4139 14.8125 21.4274 14.7785 21.4439 14.7785C21.4604 14.7785 21.4739 14.7565 21.4739 14.7296C21.4739 14.7026 21.4874 14.6736 21.5039 14.665C21.5204 14.6564 21.5339 14.6217 21.5339 14.5878C21.5339 14.554 21.5474 14.5263 21.5639 14.5263C21.5803 14.5263 21.5938 14.5035 21.5938 14.4755C21.5938 14.4476 21.6073 14.4022 21.6238 14.3747C21.6403 14.3471 21.6673 14.302 21.6838 14.2744C21.7003 14.2469 21.7138 14.2015 21.7138 14.1735C21.7138 14.1456 21.7273 14.1228 21.7438 14.1228C21.7603 14.1228 21.7738 14.1014 21.7738 14.0753C21.7738 14.0491 21.794 13.9952 21.8186 13.9555C21.8432 13.9157 21.8635 13.852 21.8636 13.8139C21.8637 13.7757 21.8773 13.7445 21.8938 13.7445C21.9103 13.7445 21.9237 13.7168 21.9237 13.683C21.9237 13.6491 21.9372 13.6144 21.9537 13.6058C21.9702 13.5972 21.9837 13.5682 21.9837 13.5412C21.9837 13.5143 21.9972 13.4923 22.0137 13.4923C22.0302 13.4923 22.0437 13.4583 22.0437 13.4167C22.0437 13.375 22.0572 13.341 22.0737 13.341C22.0902 13.341 22.1037 13.3133 22.1037 13.2795C22.1037 13.2456 22.1172 13.2109 22.1337 13.2023C22.1502 13.1937 22.1637 13.1646 22.1637 13.1377C22.1637 13.1108 22.1772 13.0888 22.1937 13.0888C22.2102 13.0888 22.2237 13.0604 22.2237 13.0258C22.2237 12.9911 22.2372 12.9627 22.2537 12.9627C22.2702 12.9627 22.2836 12.9287 22.2836 12.887C22.2836 12.8454 22.2971 12.8114 22.3136 12.8114C22.3301 12.8114 22.3436 12.7887 22.3436 12.761C22.3436 12.7332 22.3571 12.7105 22.3736 12.7105C22.3901 12.7105 22.4036 12.6765 22.4036 12.6349C22.4036 12.5932 22.4171 12.5592 22.4336 12.5592C22.4501 12.5592 22.4636 12.5252 22.4636 12.4835C22.4636 12.4419 22.4771 12.4079 22.4936 12.4079C22.5101 12.4079 22.5236 12.4419 22.5236 12.4835Z" fill="white"/>
</svg>
