<svg width="65" height="65" viewBox="0 0 65 65" fill="none" xmlns="http://www.w3.org/2000/svg">
<rect x="0.5" y="0.5" width="64" height="64" rx="9.5" fill="white" stroke="#D9D9D9"/>
<path d="M18.5625 18C16.5957 18 15 19.5677 15 21.5C15 22.601 15.527 23.6365 16.425 24.3L32.575 36.2C33.4211 36.8198 34.5789 36.8198 35.425 36.2L51.575 24.3C52.473 23.6365 53 22.601 53 21.5C53 19.5677 51.4043 18 49.4375 18H18.5625ZM15 26.1667V41.3333C15 43.9073 17.1301 46 19.75 46H48.25C50.8699 46 53 43.9073 53 41.3333V26.1667L36.85 38.0667C35.1578 39.3135 32.8422 39.3135 31.15 38.0667L15 26.1667Z" fill="black" fill-opacity="0.68"/>
</svg>
