<?xml version="1.0" standalone="no"?>
<!DOCTYPE svg PUBLIC "-//W3C//DTD SVG 20010904//EN"
 "http://www.w3.org/TR/2001/REC-SVG-20010904/DTD/svg10.dtd">
<svg version="1.0" xmlns="http://www.w3.org/2000/svg"
 width="50.000000pt" height="50.000000pt" viewBox="0 0 50.000000 50.000000"
 preserveAspectRatio="xMidYMid meet">

<g transform="translate(0.000000,50.000000) scale(0.100000,-0.100000)"
fill="#000000" stroke="none">
<path d="M263 368 c-67 -67 -123 -129 -123 -138 0 -20 81 -100 101 -100 24 0
259 243 259 268 0 34 -20 69 -47 81 -49 22 -64 14 -190 -111z m57 -63 c13 -14
20 -28 17 -32 -8 -7 -57 35 -57 49 0 15 16 8 40 -17z m-30 -30 c13 -14 20 -28
17 -32 -8 -7 -57 35 -57 49 0 15 16 8 40 -17z m-30 -30 c13 -14 20 -28 17 -32
-8 -7 -57 35 -57 49 0 15 16 8 40 -17z"/>
<path d="M78 153 c-43 -40 -84 -115 -72 -134 9 -15 87 -6 118 15 14 8 37 32
52 51 l27 36 -33 34 c-19 19 -38 35 -42 35 -4 0 -27 -17 -50 -37z"/>
</g>
</svg>
