<svg width="24" height="15" viewBox="0 0 24 15" fill="none" xmlns="http://www.w3.org/2000/svg">
<path fill-rule="evenodd" clip-rule="evenodd" d="M2.2271 1.19299C1.68942 1.30659 1.19069 1.86545 1.01457 2.55183C0.960907 2.76076 0.959005 3.51346 1.01168 3.68692C1.1726 4.21722 1.66442 4.97481 1.76534 4.84773C1.77259 4.8386 1.7133 4.77847 1.63358 4.714C1.38696 4.51474 1.19231 4.17776 1.0402 3.68692C0.988864 3.52109 0.986259 2.64583 1.03696 2.58198C1.05633 2.55759 1.07217 2.50935 1.07217 2.47485C1.07217 2.00858 1.73273 1.34011 2.3116 1.22057C2.45484 1.19096 2.4866 1.17712 2.4102 1.17748C2.34822 1.17783 2.26583 1.18475 2.2271 1.19299ZM9.52284 1.20568C9.70242 1.24594 9.86234 1.24257 9.70594 1.20186C9.64396 1.18572 9.54889 1.17357 9.49467 1.1749C9.40277 1.17712 9.40467 1.17925 9.52284 1.20568ZM9.84678 1.27485C9.85636 1.29436 9.88805 1.31032 9.9172 1.31032C9.94636 1.31032 9.97805 1.32628 9.98763 1.34579C9.9972 1.3653 10.024 1.38126 10.0472 1.38126C10.1796 1.38126 10.623 1.88735 10.7369 2.16864C10.767 2.24287 10.7985 2.30353 10.8068 2.30353C10.9017 2.30353 10.5131 1.70769 10.2897 1.51064C10.105 1.34765 9.80382 1.18732 9.84678 1.27485ZM10.8789 2.56956C10.8789 2.60858 10.8898 2.67243 10.9031 2.71145L10.9044 2.71526C10.9087 2.72785 10.9273 2.72476 10.9273 2.71145C10.9273 2.67243 10.9164 2.60858 10.9031 2.56956L10.9018 2.56576C10.8975 2.55316 10.8789 2.55625 10.8789 2.56956ZM10.9386 7.50013C10.9387 10.0364 10.9487 12.0316 10.9607 11.9341C10.9898 11.6992 10.9899 3.25399 10.9609 3.04843C10.9485 2.96064 10.9385 4.9639 10.9386 7.50013ZM2.15668 5.03485C2.16625 5.05436 2.20189 5.06917 2.23583 5.06784C2.29534 5.06544 2.29548 5.0642 2.24118 5.03485C2.16365 4.9929 2.13611 4.9929 2.15668 5.03485ZM3.00857 8.42062C0.126052 12.0456 0.1926 11.9543 0.0465446 12.4839C0.000418007 12.6513 -0.0185255 13.4571 0.0228828 13.4894C0.0345025 13.4985 0.0396432 13.3297 0.0343615 13.1142C0.0116151 12.1882 -0.199792 12.5186 2.98442 8.50221C4.48089 6.61467 5.69793 5.07032 5.68898 5.07032C5.68004 5.07032 4.47385 6.57795 3.00857 8.42062ZM5.19638 11.1736C3.72596 13.0282 2.51653 14.5566 2.50879 14.57C2.44963 14.6727 2.97829 14.0122 5.23624 11.1626C6.65454 9.37259 7.82517 7.90806 7.83771 7.90806C7.85017 7.90806 7.86383 8.84584 7.86792 9.99202L7.87545 12.076L7.88221 9.93881C7.88594 8.76337 7.88475 7.80164 7.87947 7.80164C7.87418 7.80164 6.6668 9.31903 5.19638 11.1736ZM7.89299 12.2179C7.89299 12.2569 7.9039 12.3207 7.91721 12.3598L7.91851 12.3636C7.92281 12.3762 7.94144 12.3731 7.94144 12.3598C7.94144 12.3207 7.93052 12.2569 7.91721 12.2179L7.91591 12.2141C7.91161 12.2015 7.89299 12.2046 7.89299 12.2179ZM10.8911 12.2914C10.8806 12.3433 10.8776 12.3927 10.8842 12.4011C10.8909 12.4094 10.9048 12.3738 10.9152 12.3217C10.9256 12.2697 10.9286 12.2204 10.922 12.212C10.9153 12.2037 10.9014 12.2393 10.8911 12.2914ZM7.95911 12.5238C8.0432 12.8822 8.40897 13.3867 8.7146 13.5658C8.9151 13.6833 9.1608 13.7705 9.07214 13.6926C9.0489 13.6722 9.00636 13.6553 8.97756 13.655C8.70277 13.6522 8.00172 12.8482 8.00172 12.5359C8.00172 12.5096 7.9877 12.4772 7.97052 12.4639C7.94925 12.4473 7.94559 12.4663 7.95911 12.5238ZM10.7777 12.6721C10.6257 13.0814 10.0818 13.6524 9.8415 13.655C9.8134 13.6553 9.77143 13.6712 9.74819 13.6905C9.67397 13.7518 9.89157 13.6856 10.0488 13.5991C10.3658 13.4247 10.6868 13.0272 10.8225 12.6408C10.9091 12.3943 10.871 12.4209 10.7777 12.6721ZM0.059432 13.6002C0.0578123 13.6862 0.175699 14.0077 0.20922 14.0086C0.2226 14.0089 0.214431 13.9723 0.190981 13.9272C0.16753 13.8822 0.128657 13.7745 0.104573 13.6878C0.0804881 13.6012 0.0602066 13.5618 0.059432 13.6002ZM9.26228 13.7659C9.34361 13.7823 9.47671 13.7823 9.55805 13.7659C9.68727 13.7398 9.66861 13.7361 9.41016 13.7361C9.15171 13.7361 9.13305 13.7398 9.26228 13.7659ZM0.398233 14.3491C0.459994 14.4481 0.593303 14.5977 0.593303 14.568C0.593303 14.5614 0.534078 14.4849 0.461613 14.3979C0.37429 14.2931 0.352952 14.2766 0.398233 14.3491ZM0.691894 14.6812C1.07872 15.0251 1.64604 15.098 2.12146 14.8648C2.16407 14.8439 2.19893 14.8188 2.19893 14.8091C2.19893 14.7993 2.16407 14.8086 2.12146 14.8298C1.70773 15.0357 1.26069 15.0059 0.846823 14.7452C0.615204 14.5993 0.586542 14.5876 0.691894 14.6812Z" fill="#563019"/>
<path fill-rule="evenodd" clip-rule="evenodd" d="M22.1386 0.0340546C22.1153 0.0529433 22.0727 0.0687279 22.0439 0.068994C21.7717 0.0718317 21.7458 0.101628 18.8632 3.7318C17.3628 5.62138 16.1597 7.10942 16.1528 7.0845C16.1459 7.05985 16.1359 6.06602 16.1307 4.87594L16.1222 2.93501C16.1215 2.78727 16.0989 2.64044 16.0552 2.49934C15.9032 2.01001 15.6307 1.6168 15.3076 1.42047C15.0048 1.23646 14.9574 1.22315 14.6034 1.22333C13.8385 1.22378 13.3127 1.75097 13.1078 2.72281C13.0584 2.95728 13.0482 11.905 13.0971 12.1476C13.1846 12.5819 13.2319 12.7109 13.4112 13.0058C13.6081 13.3295 13.9169 13.5792 14.2654 13.6964C14.4842 13.7701 21.6018 13.766 21.8428 13.692C23.328 13.2364 23.446 10.6589 22.0118 10.0018C21.7888 9.89962 21.7066 9.89519 20.0242 9.89519C19.3248 9.89519 18.9345 9.08763 19.369 8.53959L21.0012 6.48104C23.0948 3.84052 23.7284 3.02139 23.7972 2.86629C24.3758 1.56164 23.6492 0.00142039 22.4625 1.52243e-06C22.3076 -0.000175836 22.1618 0.0151659 22.1386 0.0340546Z" fill="#FD7E2E"/>
</svg>
