<?xml version="1.0" standalone="no"?>
<!DOCTYPE svg PUBLIC "-//W3C//DTD SVG 20010904//EN"
 "http://www.w3.org/TR/2001/REC-SVG-20010904/DTD/svg10.dtd">
<svg version="1.0" xmlns="http://www.w3.org/2000/svg"
 width="2958.000000pt" height="1347.000000pt" viewBox="0 0 2958.000000 1347.000000"
 preserveAspectRatio="xMidYMid meet">

<g transform="translate(0.000000,1347.000000) scale(0.100000,-0.100000)"
fill="#000000" stroke="none">
<path d="M4510 12209 c-244 -23 -501 -117 -714 -262 -119 -80 -313 -274 -393
-392 -380 -563 -354 -1289 66 -1820 57 -72 174 -186 256 -250 198 -154 405
-246 675 -301 78 -16 241 -18 2077 -23 l1993 -6 -3114 -3115 c-2323 -2325
-3130 -3138 -3180 -3205 -124 -167 -221 -391 -272 -625 -26 -120 -27 -436 -1
-565 75 -370 271 -691 563 -921 459 -361 1095 -424 1619 -162 233 117 2 -106
3417 3307 l3138 3135 3 -2009 c3 -2008 3 -2010 24 -2105 58 -258 148 -454 298
-645 180 -230 406 -394 685 -498 173 -64 286 -82 520 -82 178 0 219 3 309 23
139 31 254 73 383 139 148 75 264 160 383 278 204 205 338 445 413 745 l27
105 3 3920 c2 2892 0 3945 -8 4014 -60 490 -380 941 -825 1161 -193 96 -346
139 -560 160 -132 12 -7653 12 -7785 -1z"/>
</g>
</svg>
