<svg id="svg" version="1.1" xmlns="http://www.w3.org/2000/svg" xmlns:xlink="http://www.w3.org/1999/xlink" width="400" height="182.1501014198783" viewBox="0, 0, 400,182.1501014198783"><g id="svgg"><path id="path0" d="M340.667 0.263 C 340.162 0.393,339.450 0.566,339.083 0.649 C 338.416 0.800,336.130 1.728,335.319 2.178 C 335.082 2.309,334.538 2.600,334.111 2.825 C 333.683 3.049,333.333 3.293,333.333 3.367 C 333.333 3.440,333.258 3.500,333.165 3.500 C 332.947 3.500,330.738 5.295,330.061 6.022 C 329.773 6.331,311.007 25.103,288.356 47.739 L 247.174 88.895 247.120 61.989 L 247.066 35.083 246.703 33.464 C 246.333 31.808,245.798 30.076,245.428 29.333 C 245.314 29.104,245.045 28.542,244.830 28.083 C 244.615 27.625,244.265 27.011,244.053 26.719 C 243.840 26.428,243.667 26.142,243.667 26.086 C 243.667 25.687,240.803 22.518,239.583 21.567 C 239.125 21.209,238.725 20.860,238.694 20.792 C 238.664 20.723,238.556 20.667,238.455 20.667 C 238.354 20.667,238.117 20.523,237.927 20.348 C 237.328 19.793,233.313 17.833,232.775 17.833 C 232.652 17.833,232.145 17.693,231.648 17.522 C 229.246 16.696,224.081 16.698,221.000 17.527 C 218.055 18.320,214.488 20.201,212.916 21.792 C 212.712 21.998,212.498 22.167,212.441 22.167 C 212.316 22.167,211.669 22.838,210.750 23.918 C 210.383 24.349,210.001 24.789,209.901 24.896 C 209.733 25.075,209.038 26.119,208.555 26.917 C 208.293 27.349,207.279 29.416,206.958 30.171 C 206.820 30.494,206.492 31.544,206.229 32.504 L 205.750 34.250 205.750 88.167 L 205.750 142.083 206.152 143.750 C 206.373 144.667,206.682 145.717,206.839 146.083 C 207.868 148.493,208.084 148.960,208.334 149.333 C 208.488 149.563,208.833 150.087,209.099 150.500 C 210.960 153.381,213.815 155.884,217.097 157.512 C 218.098 158.008,219.217 158.500,219.583 158.604 C 219.950 158.709,220.475 158.874,220.750 158.972 C 223.033 159.781,220.758 159.750,277.250 159.750 C 335.503 159.750,330.536 159.840,334.230 158.722 C 335.560 158.320,338.348 157.023,338.841 156.577 C 338.989 156.443,339.162 156.333,339.226 156.333 C 339.392 156.333,341.461 154.736,342.224 154.019 C 343.164 153.135,345.391 150.333,345.650 149.707 C 345.773 149.410,345.940 149.167,346.020 149.167 C 346.101 149.167,346.167 149.058,346.167 148.926 C 346.167 148.794,346.310 148.438,346.484 148.135 C 348.060 145.402,348.832 140.860,348.415 136.779 C 348.107 133.766,347.734 132.467,346.394 129.750 C 345.055 127.032,343.408 124.951,340.989 122.917 C 339.740 121.866,336.820 120.109,336.000 119.915 C 335.862 119.882,335.375 119.706,334.917 119.523 C 334.458 119.341,333.521 119.018,332.833 118.807 L 331.583 118.422 304.020 118.336 L 276.457 118.250 318.488 76.250 C 358.348 36.421,362.190 32.503,362.697 31.170 C 362.783 30.943,362.912 30.718,362.982 30.670 C 363.374 30.405,364.686 26.927,365.184 24.833 C 366.213 20.509,365.147 13.576,362.976 10.474 C 362.806 10.231,362.667 9.961,362.667 9.875 C 362.667 9.789,362.517 9.583,362.333 9.417 C 362.150 9.251,362.000 9.052,362.000 8.976 C 362.000 8.899,361.756 8.517,361.457 8.126 C 358.467 4.220,354.640 1.719,349.667 0.420 C 347.757 -0.079,342.367 -0.173,340.667 0.263 " stroke="none" fill="#fc7c04" fill-rule="evenodd"></path><path id="path1" d="M59.917 17.091 C 59.000 17.209,57.913 17.423,57.500 17.567 C 57.087 17.711,56.655 17.830,56.540 17.831 C 56.079 17.836,51.969 19.820,51.667 20.183 C 51.621 20.238,51.278 20.475,50.904 20.709 C 50.531 20.943,49.993 21.366,49.709 21.650 C 49.425 21.934,49.152 22.167,49.102 22.167 C 48.975 22.167,48.030 23.137,47.333 23.982 C 47.012 24.371,46.545 24.928,46.294 25.220 C 46.044 25.511,45.837 25.835,45.836 25.938 C 45.835 26.041,45.722 26.218,45.587 26.330 C 45.451 26.443,45.240 26.733,45.117 26.976 C 44.995 27.218,44.813 27.567,44.713 27.750 C 41.629 33.398,41.487 40.899,44.355 46.667 C 44.651 47.262,44.955 47.775,45.030 47.806 C 45.105 47.836,45.167 48.005,45.167 48.181 C 45.167 48.356,45.225 48.500,45.297 48.500 C 45.369 48.500,45.569 48.744,45.742 49.042 C 46.258 49.933,47.315 51.177,48.654 52.465 C 50.411 54.156,50.423 54.167,50.625 54.167 C 50.724 54.167,50.831 54.227,50.861 54.301 C 51.047 54.752,54.939 56.850,56.178 57.168 C 56.493 57.249,57.087 57.424,57.500 57.558 C 59.867 58.325,60.198 58.333,88.090 58.333 L 114.384 58.333 72.389 100.292 C 36.315 136.333,28.667 144.080,28.667 144.571 C 28.667 144.616,28.474 144.936,28.239 145.283 C 24.484 150.816,24.381 160.135,28.008 166.250 C 28.279 166.708,28.552 167.196,28.614 167.333 C 28.675 167.471,28.769 167.621,28.822 167.667 C 28.875 167.712,29.138 168.050,29.407 168.417 C 29.676 168.783,30.106 169.290,30.364 169.543 C 30.622 169.796,30.833 170.050,30.833 170.107 C 30.833 170.303,33.127 172.310,34.019 172.895 C 34.318 173.090,34.754 173.380,34.989 173.539 C 35.599 173.952,38.802 175.500,39.046 175.500 C 39.158 175.500,39.638 175.648,40.112 175.828 C 41.289 176.275,44.057 176.668,45.988 176.661 C 50.296 176.647,54.038 175.538,57.521 173.244 C 58.197 172.798,58.810 172.336,58.883 172.217 C 58.957 172.098,59.082 172.000,59.162 172.000 C 59.369 172.000,57.046 174.309,102.207 129.222 C 125.008 106.458,143.702 87.833,143.749 87.833 C 143.795 87.833,143.833 99.708,143.833 114.221 C 143.833 142.090,143.852 142.860,144.590 144.625 C 144.724 144.945,144.833 145.346,144.833 145.516 C 144.833 145.990,146.421 149.393,146.781 149.693 C 146.902 149.792,147.000 149.936,147.000 150.012 C 147.000 150.234,147.977 151.618,148.597 152.276 C 148.910 152.608,149.167 152.933,149.167 152.998 C 149.167 153.063,149.588 153.484,150.104 153.933 C 150.619 154.382,151.126 154.825,151.229 154.917 C 151.732 155.363,152.945 156.288,153.167 156.395 C 153.304 156.462,153.717 156.699,154.083 156.923 C 154.450 157.148,155.012 157.446,155.333 157.586 C 155.654 157.727,156.054 157.919,156.222 158.014 C 159.563 159.901,166.590 160.206,171.181 158.663 C 172.455 158.235,175.667 156.664,175.667 156.470 C 175.667 156.395,175.745 156.333,175.840 156.333 C 176.735 156.333,180.908 152.127,182.207 149.917 C 182.746 148.999,184.167 145.995,184.167 145.772 C 184.167 145.651,184.325 145.109,184.518 144.568 C 185.323 142.311,185.315 142.844,185.321 88.333 C 185.326 33.929,185.334 34.457,184.542 32.083 C 184.358 31.533,184.157 30.867,184.095 30.603 C 183.836 29.499,181.895 25.876,181.465 25.694 C 181.393 25.664,181.333 25.524,181.333 25.383 C 181.333 25.097,176.951 20.667,176.667 20.667 C 176.568 20.667,176.343 20.535,176.169 20.375 C 175.994 20.215,175.491 19.899,175.051 19.674 C 174.610 19.449,173.989 19.092,173.670 18.882 C 173.350 18.672,172.975 18.500,172.836 18.499 C 172.697 18.498,172.385 18.395,172.143 18.268 C 171.389 17.875,168.653 17.196,167.072 17.011 C 164.685 16.731,62.116 16.807,59.917 17.091 " stroke="none" fill="#040404" fill-rule="evenodd"></path><path id="path2" d="" stroke="none" fill="#1004004" fill-rule="evenodd"></path><path id="path3" d="" stroke="none" fill="#444004" fill-rule="evenodd"></path><path id="path4" d="" stroke="none" fill="#044404" fill-rule="evenodd"></path></g></svg>