<svg width="27" height="26" viewBox="0 0 27 26" fill="none" xmlns="http://www.w3.org/2000/svg">
<path d="M24.7556 15.3014L26.9716 4.73886C27.1315 3.97622 26.5965 3.25 25.8745 3.25H7.46288L7.03322 0.974492C6.92616 0.407316 6.46547 0 5.93105 0H1.125C0.503672 0 0 0.545645 0 1.21875V2.03125C0 2.70436 0.503672 3.25 1.125 3.25H4.40077L7.69364 20.6901C6.90586 21.1809 6.375 22.1011 6.375 23.1562C6.375 24.7268 7.55025 26 9 26C10.4498 26 11.625 24.7268 11.625 23.1562C11.625 22.3603 11.3228 21.6412 10.8364 21.125H20.6636C20.1772 21.6412 19.875 22.3603 19.875 23.1562C19.875 24.7268 21.0503 26 22.5 26C23.9498 26 25.125 24.7268 25.125 23.1562C25.125 22.0303 24.5209 21.0574 23.6447 20.5966L23.9033 19.3639C24.0633 18.6012 23.5283 17.875 22.8063 17.875H10.2242L9.91744 16.25H23.6586C24.1839 16.25 24.6392 15.8562 24.7556 15.3014Z" fill="#D9D9D9"/>
</svg>
