<svg width="29" height="29" viewBox="0 0 29 29" fill="none" xmlns="http://www.w3.org/2000/svg">
<path d="M18.0852 1.77734C19.8035 2.35196 21.2456 2.83817 21.2898 2.85475C21.334 2.87685 19.8919 3.38516 18.0852 3.99293L14.7977 5.09796L11.4992 3.99846C9.68143 3.40174 8.21726 2.8879 8.23936 2.87132C8.33329 2.78845 14.6485 0.722038 14.7977 0.727563C14.8917 0.727563 16.3669 1.20273 18.0852 1.77734Z" fill="white"/>
<path d="M21.4004 8.99871V13.3636L18.566 14.3139C17.0134 14.8333 15.704 15.2753 15.6653 15.2919C15.61 15.314 15.599 14.4355 15.61 10.938L15.6266 6.56212L18.4168 5.62837C19.9528 5.12005 21.2512 4.68357 21.3009 4.66699C21.3949 4.63936 21.4004 4.87142 21.4004 8.99871Z" fill="white"/>
<path d="M11.0684 5.60628L13.9138 6.56213L13.9304 10.938C13.9414 15.093 13.9359 15.314 13.8475 15.2863C13.7923 15.2698 12.4938 14.8333 10.9578 14.325L8.16765 13.3912L8.15107 9.02082C8.14555 6.61185 8.1566 4.6449 8.1787 4.65042C8.20632 4.65042 9.50473 5.08139 11.0684 5.60628Z" fill="white"/>
<path d="M25.5718 15.64C27.3619 16.2422 28.793 16.745 28.7488 16.7671C28.7046 16.7837 27.2128 17.2865 25.4337 17.8776L22.207 18.955L18.9306 17.8666C17.1294 17.2644 15.6541 16.7616 15.6541 16.745C15.6541 16.7118 22.1794 14.5349 22.2567 14.5404C22.2899 14.5404 23.7761 15.0377 25.5718 15.64Z" fill="white"/>
<path d="M10.6538 15.64C12.444 16.2422 13.875 16.745 13.8308 16.7671C13.7866 16.7837 12.2948 17.2865 10.5157 17.8776L7.28901 18.955L4.01259 17.8666C2.21139 17.2644 0.736174 16.7616 0.736174 16.745C0.736174 16.7118 7.26138 14.5349 7.33873 14.5404C7.37188 14.5404 8.85815 15.0377 10.6538 15.64Z" fill="white"/>
<path d="M28.8482 22.6459L28.8316 26.7842L28.6824 26.9776C28.5333 27.171 28.4393 27.2096 25.8646 28.0716C24.3949 28.5633 23.1628 28.9777 23.1241 28.9943C23.0744 29.0164 23.0578 28.1379 23.0578 24.7178V20.4192L25.9199 19.4634C27.489 18.944 28.7985 18.513 28.8206 18.513C28.8427 18.513 28.8537 20.375 28.8482 22.6459Z" fill="white"/>
<path d="M18.566 19.4689L21.4004 20.4192V24.7178C21.4004 28.7898 21.3949 29.0164 21.3009 28.9887C21.2512 28.9722 19.9528 28.5357 18.4168 28.0274L15.6266 27.0936L15.61 22.8061C15.599 19.386 15.61 18.513 15.6653 18.5186C15.704 18.5186 17.0134 18.9495 18.566 19.4689Z" fill="white"/>
<path d="M13.9414 22.7895V27.066L11.107 28.0163C9.55443 28.5357 8.24497 28.9777 8.2063 28.9943C8.15657 29.0164 8.13999 28.1379 8.13999 24.7178V20.4192L11.002 19.4634C12.5712 18.944 13.8806 18.513 13.9027 18.513C13.9248 18.513 13.9414 20.4358 13.9414 22.7895Z" fill="white"/>
<path d="M3.64802 19.4689L6.48242 20.4192V24.7178C6.48242 28.1378 6.46585 29.0163 6.41059 28.9998C6.37744 28.9832 5.16744 28.5799 3.73642 28.1047C2.29988 27.624 1.06225 27.1875 0.990418 27.1267C0.66996 26.8781 0.68101 27.0107 0.68101 22.5795C0.68101 19.3584 0.697585 18.513 0.747312 18.5186C0.785987 18.5186 2.09545 18.9495 3.64802 19.4689Z" fill="white"/>
</svg>
