<svg width="234" height="234" viewBox="0 0 234 234" fill="none" xmlns="http://www.w3.org/2000/svg">
<path d="M233.667 117C233.667 181.433 181.433 233.667 117 233.667C52.5667 233.667 0.333252 181.433 0.333252 117C0.333252 52.5668 52.5667 0.333374 117 0.333374C181.433 0.333374 233.667 52.5668 233.667 117ZM17.3853 117C17.3853 172.016 61.9843 216.615 117 216.615C172.016 216.615 216.615 172.016 216.615 117C216.615 61.9844 172.016 17.3854 117 17.3854C61.9843 17.3854 17.3853 61.9844 17.3853 117Z" fill="#FF0000"/>
<path d="M86.3905 68.9603L68.9604 86.3904L77.8609 95.2908L99.8648 117.666L77.8609 139.669L68.9604 148.199L86.3905 166L95.2909 157.1L117.666 134.725L139.67 157.1L148.199 166L166 148.199L157.1 139.669L134.725 117.666L157.1 95.2908L166 86.3904L148.199 68.9603L139.67 77.8608L117.666 99.8647L95.2909 77.8608L86.3905 68.9603Z" fill="#FF0000"/>
</svg>
