<svg width="234" height="234" viewBox="0 0 234 234" fill="none" xmlns="http://www.w3.org/2000/svg">
<path d="M233.667 117C233.667 181.433 181.433 233.667 117 233.667C52.5667 233.667 0.333252 181.433 0.333252 117C0.333252 52.5668 52.5667 0.333374 117 0.333374C181.433 0.333374 233.667 52.5668 233.667 117ZM17.3853 117C17.3853 172.016 61.9843 216.615 117 216.615C172.016 216.615 216.615 172.016 216.615 117C216.615 61.9844 172.016 17.3854 117 17.3854C61.9843 17.3854 17.3853 61.9844 17.3853 117Z" fill="#088314"/>
<path d="M108.371 178.67L38.9328 108.015C34.1334 103.132 34.1334 95.2348 38.9328 90.4032C43.7322 85.5197 48.0849 82.9498 52.8333 87.8333L118.167 150.833L180 87.8336C184.799 82.9501 190.319 85.5199 195.067 90.4035C199.866 95.287 199.866 103.184 195.067 108.015L125.629 178.67C120.931 183.554 113.171 183.554 108.371 178.67Z" fill="#088314"/>
</svg>
