<svg width="45" height="42" viewBox="0 0 45 42" fill="none" xmlns="http://www.w3.org/2000/svg">
<path d="M21.6938 0.107807C21.1579 0.252337 20.4989 0.798334 20.2442 1.30419L20.0333 1.70566V12.8826C20.0333 19.0331 20.0069 24.0675 19.963 24.0675C19.9279 24.0675 18.5924 22.8711 17.0021 21.4098C15.4031 19.9484 13.9271 18.6637 13.7162 18.5513C13.1978 18.2703 12.2226 18.198 11.6252 18.4068C11.1244 18.5834 10.5093 19.0893 10.2546 19.5309C9.97341 20.0046 9.98219 21.0725 10.2721 21.5784C10.5533 22.0842 20.7977 31.4465 21.3512 31.7035C21.9223 31.9765 23.0644 31.9765 23.6355 31.7035C24.189 31.4465 34.4334 22.0842 34.7146 21.5784C35.0045 21.0725 35.0133 20.0046 34.7321 19.5309C34.4774 19.0893 33.8623 18.5834 33.3615 18.4068C32.7641 18.198 31.7889 18.2703 31.2705 18.5513C31.0596 18.6637 29.5836 19.9484 27.9846 21.4098C26.3943 22.8711 25.0588 24.0675 25.0237 24.0675C24.9798 24.0675 24.9534 19.0331 24.9534 12.8826V1.70566L24.7425 1.30419C24.2242 0.268394 22.9151 -0.237457 21.6938 0.107807Z" fill="#FD7E2E"/>
<path d="M1.97829 27.4318C1.13484 27.6325 0.370467 28.2669 0.142033 28.9734C-0.0248994 29.4793 -0.0512572 32.1932 0.0981035 33.1889C0.713118 37.2277 4.22749 40.4394 8.64681 41.0015C9.59569 41.1219 35.3912 41.1219 36.34 41.0015C40.7594 40.4394 44.2737 37.2277 44.8887 33.1889C45.0381 32.1932 45.0117 29.4793 44.8448 28.9734C44.6779 28.4515 44.098 27.8493 43.5094 27.5924C42.5693 27.1829 41.3744 27.4238 40.6364 28.1785C40.0565 28.7727 39.9774 29.0939 39.9774 30.9326C39.9774 33.1808 39.7138 33.9758 38.6332 35.0356C38.0357 35.6218 37.4734 35.9751 36.6563 36.2641L36.0677 36.4729L22.757 36.497C9.72748 36.513 9.43754 36.513 8.76102 36.3524C7.8385 36.1437 7.20592 35.7984 6.45911 35.1159C5.2818 34.032 5.00944 33.2451 5.00944 30.9326C5.00944 29.0939 4.93036 28.7727 4.35049 28.1785C3.76183 27.5844 2.72509 27.2552 1.97829 27.4318Z" fill="#FD7E2E"/>
</svg>
