<svg width="44" height="20" viewBox="0 0 44 20" fill="none" xmlns="http://www.w3.org/2000/svg">
<path fill-rule="evenodd" clip-rule="evenodd" d="M0.445886 0.91399C0.456958 1.20062 0.471719 1.2521 0.545745 1.26233C0.805161 1.29831 1.00162 1.35944 1.00162 1.40433C1.00162 1.43226 1.05904 1.45508 1.12927 1.45508C1.1995 1.45508 1.26907 1.4814 1.28383 1.51358C1.29859 1.54575 1.36817 1.57207 1.4384 1.57207C1.50862 1.57207 1.56604 1.5984 1.56604 1.63057C1.56604 1.66274 1.60512 1.68906 1.65288 1.68906C1.70063 1.68906 1.73971 1.71539 1.73971 1.74756C1.73971 1.77973 1.79832 1.80606 1.86996 1.80606C1.9416 1.80606 2.00021 1.83238 2.00021 1.86455C2.00021 1.89672 2.03929 1.92305 2.08704 1.92305C2.1348 1.92305 2.17388 1.94937 2.17388 1.98154C2.17388 2.01372 2.23249 2.04004 2.30413 2.04004C2.37577 2.04004 2.43438 2.06636 2.43438 2.09854C2.43438 2.13071 2.47346 2.15703 2.52121 2.15703C2.56897 2.15703 2.60805 2.18336 2.60805 2.21553C2.60805 2.2477 2.65689 2.27402 2.71659 2.27402C2.77629 2.27402 2.82524 2.29377 2.82546 2.3179C2.82589 2.37127 3.03668 2.50801 3.11852 2.50801C3.15098 2.50801 3.16552 2.53433 3.15076 2.5665C3.136 2.59868 3.16411 2.625 3.21328 2.625C3.26245 2.625 3.30272 2.64635 3.30272 2.67253C3.30272 2.69871 3.3711 2.75633 3.45468 2.80049C3.53825 2.84465 3.60664 2.90227 3.60664 2.92845C3.60664 2.95463 3.63616 2.97598 3.6723 2.97598C3.74883 2.97598 3.89189 3.07966 4.01258 3.22254C4.05926 3.27782 4.11277 3.31014 4.13155 3.29449C4.15032 3.27884 4.18245 3.30648 4.20308 3.35576C4.22446 3.40739 4.32052 3.45638 4.42852 3.47086C4.95647 3.54164 6.93693 5.8085 7.85454 7.39243C8.00368 7.64982 8.15141 7.90237 8.18278 7.9537C8.41299 8.32998 8.74535 9.06703 9.02376 9.819C9.2949 10.5512 9.38108 10.6874 9.38108 10.3833C9.38108 10.252 9.36361 10.1786 9.33767 10.2002C9.31096 10.2225 9.29425 10.1241 9.29425 9.94389C9.29425 9.78302 9.27471 9.63517 9.25083 9.61528C9.22695 9.5954 9.20742 9.47694 9.20742 9.35205C9.20742 9.22716 9.18788 9.10871 9.164 9.08882C9.14012 9.06893 9.12058 8.94887 9.12058 8.82208C9.12058 8.69529 9.10104 8.5916 9.07716 8.5916C9.05328 8.5916 9.03375 8.45999 9.03375 8.29912C9.03375 8.13826 9.01421 8.00664 8.99033 8.00664C8.96645 8.00664 8.94691 7.87722 8.94691 7.71899C8.94691 7.5609 8.92846 7.4227 8.90578 7.41188C8.8832 7.40121 8.86008 7.26886 8.85443 7.11779C8.84879 6.96673 8.82817 6.85646 8.80863 6.87255C8.7892 6.88878 8.77325 6.76901 8.77325 6.60624C8.77325 6.44348 8.75371 6.31026 8.72983 6.31026C8.70595 6.31026 8.68641 6.19341 8.68641 6.05053C8.68641 5.90766 8.66687 5.77443 8.64299 5.75454C8.61912 5.73465 8.59958 5.58988 8.59958 5.43281C8.59958 5.27575 8.57928 5.13024 8.55442 5.10962C8.52957 5.08886 8.52023 5.0251 8.5338 4.96762C8.54726 4.9103 8.53695 4.78745 8.51068 4.69474C8.48452 4.60202 8.45543 4.43399 8.4461 4.32139C8.43687 4.20878 8.41158 4.00478 8.38998 3.86804C8.36838 3.73131 8.36274 3.619 8.3775 3.61856C8.39215 3.61812 8.38087 3.59764 8.35243 3.57337C8.32399 3.54895 8.29588 3.40461 8.29002 3.25252C8.28426 3.10043 8.26353 2.97598 8.2441 2.97598C8.22467 2.97598 8.20883 2.89701 8.20883 2.80049C8.20883 2.70397 8.18929 2.625 8.16541 2.625C8.14153 2.625 8.12199 2.57236 8.12199 2.50801C8.12199 2.44366 8.10246 2.39102 8.07858 2.39102C8.0547 2.39102 8.03516 2.33837 8.03516 2.27402C8.03516 2.20968 8.01562 2.15703 7.99174 2.15703C7.96786 2.15703 7.94832 2.11872 7.94832 2.07192C7.94832 2.02512 7.90437 1.92597 7.85064 1.85154C7.79691 1.77725 7.71409 1.64431 7.66666 1.55642C7.61923 1.46853 7.55486 1.39658 7.5236 1.39658C7.49234 1.39658 7.41886 1.33209 7.36035 1.25312C7.30185 1.1743 7.18061 1.06681 7.09095 1.01431C7.0014 0.961811 6.89405 0.894686 6.85259 0.865146C6.81113 0.835751 6.73786 0.811622 6.68978 0.811622C6.64169 0.811622 6.6024 0.7853 6.6024 0.753127C6.6024 0.719638 6.47215 0.694629 6.29848 0.694629C6.12482 0.694629 5.99457 0.669623 5.99457 0.636134C5.99457 0.597673 5.03863 0.577637 3.21371 0.577637H0.432861L0.445886 0.91399Z" fill="#EBC45C"/>
<path fill-rule="evenodd" clip-rule="evenodd" d="M13.0509 0.638811C13.0651 0.66996 13.0462 0.7112 13.0089 0.730504C12.9716 0.749807 12.9411 0.827023 12.9411 0.902044C12.9411 0.977211 12.9215 1.05487 12.8976 1.07475C12.8738 1.09464 12.8542 1.17522 12.8542 1.25375C12.8542 1.33228 12.8347 1.39648 12.8108 1.39648C12.7869 1.39648 12.7674 1.43626 12.7674 1.48496C12.7674 1.57138 12.7486 1.63544 12.6425 1.91066C12.614 1.98437 12.6041 2.07401 12.6206 2.1097C12.637 2.14538 12.6157 2.20885 12.5732 2.25067C12.53 2.29337 12.5071 2.36591 12.5213 2.41563C12.5352 2.46447 12.5192 2.54154 12.4855 2.58688C12.452 2.63207 12.4153 2.74467 12.4041 2.83709C12.3929 2.92952 12.3797 3.01171 12.3748 3.01975C12.3698 3.02779 12.3609 3.0607 12.3549 3.09287C12.349 3.12504 12.3393 3.17111 12.3336 3.19524C12.3277 3.21937 12.3253 3.25885 12.3281 3.28298C12.3309 3.30711 12.3116 3.32685 12.2851 3.32685C12.2588 3.32685 12.2475 3.36312 12.2601 3.40743C12.2727 3.45174 12.2684 3.51097 12.2505 3.53905C12.2327 3.56713 12.192 3.70196 12.1602 3.83869C12.1283 3.97543 12.0859 4.0873 12.0658 4.0873C12.0457 4.0873 12.0293 4.15238 12.0293 4.23179C12.0293 4.3112 11.9902 4.47001 11.9425 4.58452C11.8947 4.69903 11.8556 4.84307 11.8556 4.90464C11.8556 4.96606 11.8361 5.0326 11.8122 5.05249C11.7883 5.07238 11.7688 5.15295 11.7688 5.23149C11.7688 5.31002 11.7493 5.37422 11.7254 5.37422C11.7015 5.37422 11.682 5.46796 11.682 5.58246C11.682 5.70633 11.6644 5.77594 11.6386 5.75444C11.6132 5.73324 11.5951 5.79393 11.5951 5.90068C11.5951 6.001 11.578 6.06886 11.5572 6.05145C11.5362 6.03405 11.5069 6.12267 11.492 6.24859C11.477 6.37435 11.4356 6.51679 11.3998 6.56505C11.3639 6.61331 11.3346 6.69257 11.3346 6.74127C11.3346 6.78997 11.3151 6.84598 11.2912 6.86587C11.2673 6.88575 11.2478 6.96633 11.2478 7.04486C11.2478 7.12339 11.2283 7.1876 11.2044 7.1876C11.1805 7.1876 11.161 7.26657 11.161 7.36308C11.161 7.4596 11.145 7.53857 11.1254 7.53857C11.1058 7.53857 11.0633 7.67019 11.0307 7.83105C10.9982 7.99192 10.9556 8.12353 10.9361 8.12353C10.9164 8.12353 10.9005 8.2025 10.9005 8.29902C10.9005 8.39554 10.8787 8.47451 10.852 8.47451C10.8247 8.47451 10.8135 8.52613 10.8264 8.59253C10.839 8.65746 10.8255 8.74301 10.7964 8.78264C10.7673 8.82227 10.7177 8.97977 10.6861 9.13259C10.6545 9.28541 10.6116 9.41045 10.5909 9.41045C10.5702 9.41045 10.5531 9.47099 10.5531 9.54499C10.5531 9.61899 10.5343 9.70497 10.5111 9.73612C10.4879 9.76742 10.4569 9.89772 10.442 10.0257C10.4271 10.1538 10.3972 10.2674 10.3755 10.2781C10.3537 10.2889 10.3361 10.3745 10.3361 10.4682C10.3361 10.5621 10.3165 10.6389 10.2926 10.6389C10.2688 10.6389 10.2492 10.7063 10.2492 10.7886C10.2492 10.8709 10.2338 10.9255 10.215 10.9097C10.1962 10.8941 10.1765 10.9518 10.1712 11.038C10.166 11.1241 10.1423 11.2034 10.1186 11.214C10.0949 11.2248 10.0756 11.3119 10.0756 11.4076C10.0756 11.5034 10.0584 11.5675 10.0376 11.5501C10.0166 11.5327 9.98731 11.6213 9.97243 11.7472C9.95746 11.873 9.92088 12.0107 9.89103 12.0533C9.86118 12.0957 9.83003 12.1963 9.82167 12.2768C9.78726 12.6112 9.6556 12.6428 9.64703 12.3187C9.64279 12.1555 9.61902 11.9891 9.59417 11.9489C9.56942 11.9088 9.54814 11.769 9.54673 11.6384C9.54543 11.5078 9.52709 11.4153 9.50603 11.4328C9.48497 11.4504 9.46771 11.3369 9.46771 11.1805C9.46771 10.8936 9.41149 10.7437 9.32129 10.7904C9.29437 10.8043 9.24488 10.7298 9.21134 10.625C9.1588 10.4603 8.82134 9.52876 8.67091 9.13303C8.64355 9.06093 8.60643 9.00171 8.58852 9.00141C8.57061 9.00112 8.55596 8.97275 8.55596 8.93838C8.55596 8.8796 8.31087 8.36263 8.2528 8.29902C8.23815 8.28293 8.17932 8.17764 8.12201 8.06504C7.71823 7.27095 6.88072 6.03551 6.27798 5.34497C5.69164 4.67329 5.54304 4.51081 5.34311 4.32333C5.25953 4.2448 5.18138 4.16496 5.16944 4.1458C5.1575 4.12664 5.07935 4.04767 4.99577 3.97031C4.9122 3.89295 4.83405 3.8153 4.82211 3.7976C4.77532 3.72858 4.60285 3.61933 4.54044 3.61933C4.46706 3.61933 4.45089 3.76806 4.51819 3.82407C4.54207 3.84396 4.5616 3.9377 4.5616 4.03232C4.5616 4.12693 4.58114 4.20429 4.60502 4.20429C4.6289 4.20429 4.64844 4.3112 4.64844 4.44179C4.64844 4.5851 4.66559 4.6648 4.69186 4.64301C4.71801 4.62122 4.73527 4.69976 4.73527 4.84088C4.73527 4.96957 4.75481 5.09109 4.77869 5.11098C4.80257 5.13087 4.82211 5.22607 4.82211 5.32259C4.82211 5.44032 4.8386 5.48433 4.87225 5.4564C4.90102 5.43242 4.91068 5.44017 4.89483 5.47454C4.87974 5.50759 4.89841 5.68936 4.9364 5.87845C4.97439 6.06769 5.00652 6.25531 5.00782 6.29553C5.00912 6.33575 5.02258 6.36865 5.03756 6.36865C5.05265 6.36865 5.06296 6.44104 5.06046 6.52951C5.05797 6.61799 5.07468 6.72416 5.09759 6.76555C5.12049 6.80679 5.13753 6.91866 5.13547 7.01415C5.13351 7.1095 5.15001 7.1876 5.17237 7.1876C5.19462 7.1876 5.21286 7.26744 5.21286 7.36513C5.21286 7.46282 5.23804 7.60102 5.26887 7.67224C5.29969 7.74345 5.32346 7.85445 5.32162 7.9188C5.31988 7.98314 5.33616 8.05261 5.35787 8.07308C5.37958 8.09341 5.39738 8.17954 5.39738 8.26422C5.39738 8.34889 5.41442 8.43239 5.43537 8.44979C5.45621 8.4672 5.47336 8.57044 5.47336 8.67925C5.47336 8.78805 5.4929 8.89334 5.51678 8.91323C5.54066 8.93312 5.56019 9.02159 5.56019 9.10978C5.56019 9.19796 5.57962 9.29623 5.60339 9.32826C5.62706 9.36014 5.65093 9.45754 5.65625 9.5447C5.66157 9.63171 5.68122 9.70293 5.69989 9.70293C5.71856 9.70293 5.73386 9.80515 5.73386 9.93019C5.73386 10.0552 5.76165 10.2297 5.79551 10.3177C5.82949 10.4059 5.84696 10.5141 5.83437 10.5584C5.82167 10.6026 5.83307 10.6389 5.85944 10.6389C5.88593 10.6389 5.90753 10.731 5.90753 10.8436C5.90753 10.9562 5.92707 11.0483 5.95095 11.0483C5.97482 11.0483 5.99436 11.1383 5.99436 11.2482C5.99436 11.3581 6.01433 11.4571 6.03876 11.468C6.06307 11.4789 6.08586 11.5875 6.08923 11.7093C6.09259 11.831 6.1117 11.9444 6.13167 11.9609C6.15164 11.9775 6.16803 12.0665 6.16803 12.1583C6.16803 12.2503 6.1867 12.3342 6.20949 12.345C6.2324 12.3557 6.25584 12.4615 6.2617 12.5801C6.26745 12.6987 6.28786 12.7826 6.30696 12.7668C6.32607 12.7509 6.3417 12.8462 6.3417 12.9787C6.3417 13.1244 6.35885 13.2054 6.38511 13.1834C6.41127 13.1617 6.42853 13.2402 6.42853 13.3813C6.42853 13.51 6.44807 13.6315 6.47195 13.6514C6.49583 13.6713 6.51536 13.7665 6.51536 13.863C6.51536 13.9651 6.53349 14.0234 6.55878 14.0024C6.58494 13.9806 6.6022 14.0591 6.6022 14.2003C6.6022 14.3289 6.62174 14.4505 6.64562 14.4704C6.66949 14.4902 6.68903 14.5818 6.68903 14.6736C6.68903 14.7656 6.7064 14.8496 6.72767 14.8604C6.74884 14.8711 6.77836 14.9983 6.79312 15.1431C6.85109 15.7111 6.91187 16.0995 6.95409 16.1713C6.9745 16.2061 6.99708 16.2851 7.00424 16.3468C7.01129 16.4086 7.02747 16.4855 7.04006 16.5177C7.05265 16.5499 7.0686 16.6683 7.07533 16.781C7.08217 16.8936 7.10551 16.9945 7.12722 17.0051C7.14893 17.016 7.16662 17.1161 7.16662 17.228C7.16662 17.3487 7.18431 17.4167 7.21004 17.3952C7.23576 17.3737 7.25345 17.4417 7.25345 17.5623C7.25345 17.6742 7.27787 17.7789 7.30772 17.7951C7.3468 17.8163 7.34756 17.826 7.31033 17.8292C7.27201 17.8327 7.27397 17.8737 7.31771 17.9874C7.35027 18.0718 7.36731 18.1745 7.35559 18.2154C7.34387 18.2565 7.35526 18.3074 7.38077 18.3286C7.40628 18.3498 7.42712 18.43 7.42712 18.5066C7.42712 18.5832 7.44666 18.6622 7.47054 18.6821C7.49442 18.702 7.51395 18.7957 7.51395 18.8903V19.0623H9.46771C11.3925 19.0623 11.4215 19.0605 11.4215 18.9453C11.4215 18.881 11.441 18.8283 11.4649 18.8283C11.4888 18.8283 11.5083 18.7637 11.5083 18.6849C11.5083 18.5164 11.5932 18.2434 11.6455 18.2434C11.6656 18.2434 11.6797 18.2236 11.6769 18.1995C11.6595 18.0521 11.6885 17.8909 11.7265 17.9225C11.7509 17.9428 11.7682 17.9379 11.7648 17.9114C11.7447 17.7559 11.7743 17.5976 11.8169 17.6329C11.8492 17.66 11.8553 17.6324 11.8356 17.5484C11.8154 17.4626 11.8274 17.4129 11.8743 17.3886C11.9119 17.3693 11.9425 17.308 11.9425 17.2524C11.9425 17.1969 11.9571 17.1316 11.975 17.1075C11.9929 17.0834 12.0091 16.9934 12.011 16.9077C12.0128 16.8219 12.0366 16.758 12.0637 16.7656C12.0909 16.7733 12.1026 16.7431 12.0899 16.6985C12.0772 16.6539 12.0877 16.5999 12.1132 16.5787C12.1387 16.5575 12.1596 16.4758 12.1596 16.3972C12.1596 16.3187 12.1791 16.2545 12.203 16.2545C12.2269 16.2545 12.2464 16.1887 12.2464 16.1083C12.2464 16.0278 12.2659 15.962 12.2898 15.962C12.3137 15.962 12.3332 15.883 12.3332 15.7865C12.3332 15.69 12.349 15.611 12.3682 15.611C12.3874 15.611 12.4509 15.4401 12.5093 15.2312C12.5677 15.0223 12.6301 14.8512 12.648 14.851C12.6659 14.8507 12.6806 14.7979 12.6806 14.7336C12.6806 14.6692 12.7001 14.6166 12.724 14.6166C12.7479 14.6166 12.7674 14.5229 12.7674 14.4084C12.7674 14.2845 12.785 14.2149 12.8108 14.2364C12.8347 14.2563 12.8542 14.2184 12.8542 14.1521C12.8542 14.0859 12.8695 14.0316 12.8882 14.0316C12.9069 14.0316 12.9265 13.9607 12.9318 13.874C12.9372 13.7874 12.956 13.7019 12.9738 13.6839C12.9916 13.666 13.0128 13.5988 13.0211 13.5344C13.0292 13.4701 13.0536 13.4087 13.0753 13.398C13.0969 13.3872 13.1147 13.3279 13.1147 13.2664C13.1147 13.2047 13.1343 13.1542 13.1581 13.1542C13.182 13.1542 13.2016 13.0884 13.2016 13.008C13.2016 12.9275 13.2211 12.8617 13.245 12.8617C13.2689 12.8617 13.2884 12.7811 13.2884 12.6827C13.2884 12.5784 13.3065 12.5189 13.3318 12.54C13.3557 12.5599 13.3752 12.522 13.3752 12.4558C13.3752 12.3895 13.3926 12.3353 13.4138 12.3353C13.4349 12.3353 13.4634 12.2561 13.477 12.1595C13.4907 12.0627 13.511 11.9376 13.5221 11.8816C13.5332 11.8255 13.544 11.7401 13.5463 11.6918C13.5494 11.6213 13.5575 11.6194 13.5869 11.6819C13.6117 11.7348 13.6325 11.6843 13.6514 11.5252C13.6667 11.3962 13.7076 11.2523 13.7422 11.2057C13.7769 11.159 13.7937 11.1051 13.7794 11.0859C13.7652 11.0668 13.774 11.0176 13.799 10.9767C13.8239 10.9356 13.8512 10.8363 13.8594 10.7559C13.8677 10.6754 13.9 10.5733 13.9313 10.5289C13.9626 10.4846 13.9778 10.4122 13.9653 10.368C13.9527 10.324 13.9613 10.2879 13.9845 10.2879C14.0076 10.2879 14.0265 10.2352 14.0265 10.1709C14.0265 10.1066 14.046 10.0539 14.0699 10.0539C14.0938 10.0539 14.1133 9.98649 14.1133 9.90415C14.1133 9.80486 14.1304 9.76873 14.1641 9.79681C14.1974 9.8246 14.2061 9.80807 14.1893 9.74899C14.1752 9.69956 14.1914 9.58696 14.2253 9.49878C14.2592 9.41074 14.287 9.30062 14.287 9.25412C14.287 9.20761 14.3065 9.18582 14.3304 9.20571C14.3557 9.22677 14.3738 9.16725 14.3738 9.06298C14.3738 8.96456 14.3934 8.88398 14.4172 8.88398C14.4411 8.88398 14.4607 8.83133 14.4607 8.76699C14.4607 8.70264 14.4802 8.65 14.5041 8.65C14.528 8.65 14.5475 8.58477 14.5475 8.50522C14.5475 8.42552 14.5865 8.27416 14.6342 8.16887C14.6819 8.06343 14.7209 7.91807 14.721 7.84568C14.721 7.77329 14.7407 7.71406 14.7646 7.71406C14.7885 7.71406 14.808 7.65981 14.808 7.59356C14.808 7.52219 14.8271 7.48914 14.855 7.51225C14.8833 7.53594 14.8972 7.5083 14.8899 7.44264C14.8834 7.38282 14.9209 7.21699 14.9733 7.07426C15.0256 6.93153 15.0685 6.79201 15.0685 6.76437C15.0685 6.73659 15.1076 6.60497 15.1553 6.47189C15.2031 6.33867 15.2422 6.20077 15.2422 6.16523C15.2422 6.12984 15.2812 5.99764 15.329 5.87143C15.3768 5.74523 15.4158 5.60805 15.4158 5.56652C15.4158 5.52514 15.4376 5.49121 15.4643 5.49121C15.4914 5.49121 15.5028 5.43959 15.4901 5.37422C15.4776 5.30987 15.4863 5.25722 15.5093 5.25722C15.5323 5.25722 15.5391 5.2309 15.5244 5.19873C15.5096 5.16655 15.5169 5.14023 15.5405 5.14023C15.5755 5.14023 15.658 4.91327 15.6411 4.8634C15.6386 4.85594 15.6743 4.73749 15.7206 4.60017C15.7669 4.46285 15.8051 4.29131 15.8056 4.21892C15.8061 4.14653 15.8261 4.0873 15.85 4.0873C15.8739 4.0873 15.8934 4.03466 15.8934 3.97031C15.8934 3.90597 15.913 3.85332 15.9368 3.85332C15.9607 3.85332 15.9802 3.78751 15.9802 3.70708C15.9802 3.62665 15.9962 3.56084 16.0158 3.56084C16.0354 3.56084 16.0779 3.42922 16.1105 3.26836C16.1431 3.10749 16.1856 2.97588 16.2051 2.97588C16.2248 2.97588 16.2385 2.95613 16.2356 2.932C16.2206 2.80317 16.2458 2.68076 16.2816 2.71045C16.3039 2.72917 16.3194 2.69363 16.3161 2.63163C16.3126 2.56962 16.351 2.40452 16.4015 2.26486C16.5183 1.94123 16.5537 1.81224 16.5757 1.63047C16.5855 1.55003 16.6117 1.47545 16.6342 1.46478C16.6566 1.45395 16.6749 1.39473 16.6749 1.33316C16.6749 1.27145 16.6905 1.22099 16.7097 1.22099C16.7545 1.22099 16.8486 0.870455 16.8486 0.70301C16.8486 0.589089 16.8374 0.581485 16.7565 0.639835C16.6897 0.687948 16.6726 0.688239 16.6945 0.640857C16.7164 0.593037 16.2276 0.576366 14.8746 0.578852C13.6949 0.580899 13.0343 0.60269 13.0509 0.638811ZM18.2157 0.634864C18.2308 0.667621 18.2126 0.694528 18.1754 0.694528C18.1382 0.694528 18.1077 0.742788 18.1077 0.801722C18.1077 0.860804 18.0933 0.928367 18.0758 0.952057C18.0582 0.975602 18.0398 1.10166 18.035 1.23196C18.0301 1.36241 18.0125 1.51201 17.9959 1.56436C17.9792 1.61687 17.9602 1.80157 17.9535 1.97486C17.947 2.14816 17.9252 2.3061 17.9052 2.32584C17.8853 2.34558 17.866 2.51639 17.8623 2.70562C17.8587 2.89486 17.8391 3.06596 17.8188 3.08585C17.7987 3.10574 17.7766 3.22741 17.77 3.3561C17.7582 3.58394 17.7324 3.80915 17.7149 3.83869C17.71 3.84674 17.7003 3.95203 17.6932 4.07268C17.6576 4.67958 17.6157 5.11698 17.5883 5.16948C17.5715 5.20165 17.5528 5.35915 17.5466 5.51943C17.5404 5.67986 17.5176 5.85579 17.4959 5.91048C17.4742 5.96517 17.4564 6.12867 17.4564 6.27359C17.4564 6.41866 17.4369 6.5535 17.413 6.57339C17.3891 6.59327 17.3696 6.76745 17.3696 6.96048C17.3696 7.17955 17.3533 7.29786 17.3262 7.27534C17.2988 7.25253 17.2828 7.39292 17.2828 7.65556C17.2828 7.88458 17.2665 8.05846 17.2467 8.04193C17.2269 8.02541 17.2062 8.16199 17.2008 8.34553C17.1954 8.52906 17.1725 8.70425 17.15 8.73482C17.1275 8.76538 17.1091 8.91147 17.1091 9.05947C17.1091 9.20746 17.0847 9.36394 17.0548 9.40738C17.0114 9.47041 17.0114 9.47786 17.0548 9.44481C17.0847 9.42215 17.1091 9.43136 17.1091 9.46543C17.1091 9.49951 17.0895 9.52744 17.0657 9.52744C17.0418 9.52744 17.0223 9.64429 17.0223 9.78716C17.0223 9.93004 17.0053 10.0611 16.9846 10.0783C16.9639 10.0956 16.9443 10.2589 16.9412 10.4413C16.9381 10.6237 16.9151 10.806 16.8903 10.8464C16.8581 10.8986 16.8612 10.9287 16.901 10.9504C16.944 10.9735 16.9444 10.9817 16.9029 10.9852C16.8664 10.9884 16.8486 11.0957 16.8486 11.3116C16.8486 11.4885 16.829 11.6333 16.8052 11.6333C16.7813 11.6333 16.7618 11.7649 16.7618 11.9258C16.7618 12.09 16.7419 12.2183 16.7164 12.2183C16.6915 12.2183 16.6743 12.2512 16.6782 12.2914C16.7024 12.5423 16.6692 13.0394 16.6304 13.0071C16.606 12.9868 16.5887 12.9917 16.5921 13.0182C16.6178 13.2177 16.5807 13.7984 16.5442 13.7681C16.5182 13.7463 16.5031 13.7984 16.5069 13.8962C16.5192 14.2036 16.5014 14.4481 16.4687 14.4211C16.4508 14.4062 16.4311 14.5413 16.4251 14.7213C16.419 14.9015 16.3988 15.0634 16.3801 15.0812C16.3614 15.0992 16.342 15.2544 16.337 15.4262C16.332 15.598 16.3141 15.7685 16.2973 15.8051C16.2806 15.8418 16.2623 16.0144 16.2569 16.1887C16.2515 16.363 16.231 16.5214 16.2113 16.5408C16.1917 16.5603 16.1687 16.721 16.1601 16.8979C16.1515 17.0749 16.1344 17.2723 16.1219 17.3367C16.1094 17.401 16.093 17.5717 16.0854 17.7159C16.0778 17.8601 16.0509 17.9874 16.0256 17.9987C16.0004 18.0101 15.9872 18.0369 15.9962 18.0582C16.0053 18.0796 15.9954 18.2419 15.9742 18.4188C15.9529 18.5958 15.9291 18.813 15.9214 18.9014L15.9074 19.0623H17.7239C19.4931 19.0623 19.5404 19.0594 19.5404 18.9488C19.5404 18.8864 19.56 18.819 19.5838 18.7991C19.6077 18.7792 19.6273 18.6196 19.6273 18.4446C19.6273 18.2695 19.6438 18.1264 19.664 18.1264C19.6841 18.1264 19.7043 17.9784 19.7087 17.7976C19.713 17.6167 19.7356 17.421 19.7588 17.3627C19.7819 17.3043 19.8009 17.1248 19.8009 16.9638C19.8009 16.8026 19.8205 16.6546 19.8444 16.6347C19.8682 16.6148 19.8878 16.4553 19.8878 16.2802C19.8878 16.1052 19.9073 15.962 19.9312 15.962C19.9551 15.962 19.9723 15.9423 19.9695 15.9181C19.949 15.7435 19.9819 15.2007 20.0114 15.2253C20.0316 15.2421 20.0517 15.1088 20.0561 14.9291C20.0605 14.7495 20.0798 14.5596 20.099 14.5072C20.1182 14.4547 20.1387 14.2802 20.1445 14.1194C20.1502 13.9585 20.173 13.8019 20.1951 13.7713C20.2171 13.7408 20.2351 13.5947 20.2351 13.4467C20.2351 13.2987 20.2585 13.146 20.2872 13.1074C20.3277 13.0529 20.3258 13.0372 20.2785 13.0372C20.2312 13.0372 20.2294 13.0216 20.2698 12.967C20.2985 12.9284 20.3219 12.7984 20.3219 12.678C20.3219 12.5577 20.3383 12.4455 20.3584 12.4288C20.3785 12.412 20.3984 12.2642 20.4027 12.0999C20.412 11.744 20.4209 11.6723 20.4604 11.632C20.4768 11.6153 20.4947 11.4376 20.5001 11.2371C20.5055 11.0368 20.5244 10.8728 20.5422 10.8728C20.5723 10.8728 20.5904 10.7077 20.6523 9.86379C20.6659 9.6788 20.6905 9.52744 20.7073 9.52744C20.7239 9.52744 20.7393 9.48137 20.7416 9.42507C20.7438 9.36877 20.751 9.18553 20.7577 9.01779C20.7644 8.8502 20.7813 8.72253 20.7955 8.73438C20.8096 8.74608 20.8252 8.60949 20.83 8.43064C20.8349 8.25193 20.8593 8.07805 20.8843 8.04442C20.9094 8.01063 20.9298 7.84363 20.9298 7.67311C20.9298 7.5026 20.9493 7.36308 20.9732 7.36308C20.9973 7.36308 21.0166 7.20821 21.0166 7.01562C21.0166 6.82448 21.0347 6.65294 21.0569 6.63451C21.079 6.61609 21.0918 6.45639 21.0852 6.27988C21.0775 6.07266 21.093 5.93666 21.1288 5.89659C21.1649 5.85622 21.1788 5.73265 21.1684 5.54576C21.1594 5.38709 21.1705 5.25722 21.193 5.25722C21.2153 5.25722 21.2337 5.08451 21.2337 4.87349C21.2337 4.66247 21.25 4.50336 21.2697 4.51988C21.2896 4.53641 21.3103 4.4004 21.3159 4.21745C21.3213 4.03465 21.3407 3.87131 21.3588 3.85463C21.3771 3.83782 21.3965 3.69245 21.4021 3.53159C21.4077 3.37073 21.4307 3.2141 21.4532 3.18354C21.4757 3.15297 21.4942 2.99006 21.4942 2.82145C21.4942 2.65283 21.5104 2.50133 21.5301 2.48495C21.5499 2.46842 21.5705 2.30244 21.576 2.11584C21.5816 1.92938 21.6045 1.7517 21.6269 1.72114C21.6494 1.69057 21.6679 1.53044 21.6679 1.36533C21.6679 1.20008 21.6825 1.04521 21.7004 1.02123C21.7183 0.997101 21.7353 0.888443 21.7381 0.779932L21.7431 0.582509L19.9657 0.578852C18.7676 0.576366 18.1972 0.594648 18.2157 0.634864ZM27.8331 0.751417C27.8331 0.785929 27.7212 0.811521 27.57 0.811521C27.3711 0.811521 27.3149 0.829362 27.3395 0.884641C27.3585 0.927197 27.338 0.9212 27.2903 0.870016C27.2427 0.818832 27.2222 0.812837 27.2412 0.855393C27.2647 0.908332 27.2318 0.928513 27.1218 0.928513C27.0382 0.928513 26.9602 0.949571 26.9483 0.975309C26.9365 1.00105 26.8426 1.02869 26.7396 1.03673C26.6366 1.04477 26.5457 1.07636 26.5378 1.10693C26.5298 1.13749 26.48 1.1625 26.4271 1.1625C26.3741 1.1625 26.3114 1.18867 26.2876 1.2207C26.264 1.25258 26.1917 1.28475 26.127 1.29192C26.0624 1.29909 26.0096 1.32278 26.0096 1.34442C26.0096 1.37879 25.8335 1.46595 25.7366 1.4794C25.7178 1.48203 25.6885 1.51347 25.6714 1.54901C25.6544 1.58469 25.6062 1.60678 25.5643 1.598C25.5224 1.58937 25.4992 1.60619 25.5126 1.63558C25.5261 1.66498 25.4871 1.68896 25.426 1.68896C25.3623 1.68896 25.3195 1.71909 25.3257 1.75945C25.3317 1.7982 25.3138 1.83111 25.2859 1.83257C25.2581 1.83403 25.2207 1.85495 25.2028 1.87907C25.1848 1.9032 25.145 1.92295 25.1143 1.92295C25.0835 1.92295 25.0085 1.99022 24.9475 2.0724C24.883 2.15912 24.814 2.20417 24.7827 2.17989C24.753 2.15693 24.7423 2.15854 24.7589 2.18325C24.7927 2.23385 24.5694 2.50791 24.4945 2.50791C24.4681 2.50791 24.4465 2.53423 24.4465 2.5664C24.4465 2.59858 24.427 2.6249 24.403 2.6249C24.3413 2.6249 24.0558 3.04358 24.0558 3.13425C24.0558 3.17593 24.0155 3.20986 23.9664 3.20986C23.9172 3.20986 23.8869 3.23136 23.8989 3.25768C23.911 3.28401 23.8731 3.37497 23.8147 3.45993C23.7562 3.54475 23.7085 3.64171 23.7085 3.67534C23.7085 3.70883 23.6889 3.73633 23.665 3.73633C23.6412 3.73633 23.6216 3.77581 23.6216 3.82407C23.6216 3.87233 23.6021 3.91181 23.5782 3.91181C23.5543 3.91181 23.5348 3.96446 23.5348 4.02881C23.5348 4.09315 23.5152 4.1458 23.4914 4.1458C23.4675 4.1458 23.448 4.18528 23.448 4.23354C23.448 4.2818 23.4284 4.32129 23.4045 4.32129C23.3807 4.32129 23.3611 4.35609 23.3611 4.39865C23.3611 4.44106 23.325 4.57589 23.2808 4.69829C23.2367 4.82055 23.2057 4.98317 23.2119 5.05965C23.2182 5.13614 23.2043 5.19873 23.181 5.19873C23.1579 5.19873 23.151 5.22505 23.1657 5.25722C23.1805 5.2894 23.1727 5.31572 23.1484 5.31572C23.0992 5.31572 23.1005 5.29027 23.09 6.51489C23.0859 6.99748 23.0946 7.48446 23.1095 7.59707C23.1244 7.70967 23.1382 7.82315 23.1402 7.84918C23.1423 7.87522 23.1602 7.88297 23.1801 7.86644C23.1998 7.84992 23.2123 7.89452 23.2078 7.96545C23.2031 8.03623 23.2203 8.14693 23.2461 8.21128C23.2717 8.27562 23.2884 8.34874 23.2831 8.37375C23.2778 8.39876 23.3017 8.43385 23.3363 8.4517C23.3708 8.46954 23.3885 8.52145 23.3754 8.56708C23.3606 8.61943 23.3802 8.65 23.4289 8.65C23.4712 8.65 23.4931 8.66711 23.4776 8.68802C23.4621 8.70908 23.4832 8.76363 23.5246 8.8094C23.566 8.85517 23.5755 8.87594 23.5456 8.85561C23.4519 8.79156 23.4861 8.87287 23.6404 9.08097C23.7225 9.19138 23.7778 9.29755 23.7635 9.31685C23.7492 9.33616 23.7635 9.35195 23.7953 9.35195C23.8271 9.35195 23.8415 9.3676 23.8274 9.38676C23.7965 9.42829 24.1003 9.79667 24.149 9.77678C24.1677 9.76903 24.1731 9.7971 24.1613 9.83893C24.149 9.88163 24.1926 9.95168 24.2605 9.99863C24.327 10.0447 24.4127 10.128 24.451 10.1841C24.4892 10.2399 24.5332 10.2687 24.5487 10.2478C24.5641 10.2269 24.5768 10.2538 24.5768 10.3073C24.5768 10.365 24.6113 10.4049 24.6611 10.4049C24.7076 10.4049 24.7763 10.4641 24.814 10.5365C24.8516 10.6089 24.8915 10.655 24.9025 10.6389C24.9136 10.6228 24.9735 10.6611 25.0356 10.724C25.0978 10.7867 25.1792 10.8442 25.2165 10.8516C25.2539 10.859 25.3008 10.8998 25.3207 10.942C25.3406 10.9844 25.3573 10.9983 25.3576 10.9729C25.358 10.9476 25.4011 10.9805 25.4533 11.046C25.5056 11.1117 25.5691 11.1662 25.5944 11.1674C25.6198 11.1684 25.7187 11.2202 25.8142 11.2823C25.9097 11.3445 26.0123 11.3962 26.0421 11.3973C26.072 11.3984 26.0964 11.4256 26.0964 11.4578C26.0964 11.49 26.1306 11.5172 26.1724 11.5182C26.2728 11.5207 26.4075 11.6614 26.3671 11.7216C26.3495 11.7477 26.3625 11.7477 26.3961 11.7215C26.4357 11.6905 26.4779 11.7127 26.5173 11.7852C26.5505 11.8465 26.5818 11.8842 26.5867 11.8693C26.5917 11.8544 26.702 11.9136 26.8322 12.0009C26.9622 12.0883 27.0512 12.1598 27.0301 12.1598C26.9585 12.1598 27.1594 12.3314 27.2331 12.3334C27.2733 12.3344 27.3182 12.3866 27.3331 12.4493C27.3479 12.5119 27.398 12.5795 27.4445 12.5994C27.491 12.6194 27.5291 12.6584 27.5291 12.6862C27.5291 12.714 27.5646 12.752 27.6081 12.7706C27.6515 12.7892 27.7133 12.8951 27.7456 13.0059C27.7779 13.1168 27.8172 13.1966 27.8331 13.1834C27.8849 13.1402 27.8827 13.8118 27.8303 13.9822C27.8021 14.0738 27.7667 14.1486 27.7515 14.1486C27.7365 14.1486 27.7 14.2218 27.6707 14.311C27.6414 14.4003 27.5633 14.5164 27.4972 14.5691C27.4312 14.6217 27.3286 14.7216 27.2692 14.7912C27.2098 14.8607 27.1072 14.932 27.0412 14.9499C26.9753 14.9677 26.9213 14.9999 26.9213 15.0214C26.9213 15.043 26.849 15.0672 26.7606 15.0752C26.6722 15.0833 26.5786 15.1137 26.5526 15.1426C26.4773 15.2269 24.7274 15.2405 24.766 15.1565C24.7773 15.1318 24.6877 15.1055 24.5668 15.0982C24.4459 15.0907 24.3201 15.0546 24.2872 15.0177C24.2543 14.981 24.2148 14.9679 24.1995 14.9885C24.1841 15.0091 24.1977 15.0261 24.2295 15.0261C24.2613 15.0261 24.2762 15.041 24.2627 15.0594C24.249 15.0777 24.192 15.0604 24.136 15.021C23.8869 14.8458 23.8718 14.8392 23.9057 14.9193C23.9319 14.9816 23.9268 14.9825 23.8798 14.9237C23.8476 14.8835 23.7666 14.8506 23.6998 14.8506C23.6329 14.8506 23.5782 14.8243 23.5782 14.7921C23.5782 14.7599 23.5403 14.7336 23.494 14.7336C23.4476 14.7336 23.3976 14.7073 23.3828 14.6751C23.3681 14.6429 23.318 14.6166 23.2717 14.6166C23.2253 14.6166 23.1875 14.5903 23.1875 14.5581C23.1875 14.5259 23.1521 14.4996 23.1088 14.4996C23.0376 14.4996 22.7625 14.3494 22.5693 14.2049C22.5278 14.1739 22.4643 14.1486 22.4282 14.1486C22.3921 14.1486 22.3625 14.1263 22.3625 14.0991C22.3625 14.0717 22.3039 14.0471 22.2323 14.0445C22.1263 14.0404 22.1019 14.0634 22.1014 14.1672C22.1008 14.2602 22.0906 14.2735 22.0637 14.2162C22.0403 14.1665 22.0249 14.2476 22.0217 14.4376C22.019 14.6026 21.9969 14.7876 21.9725 14.8487C21.9482 14.9098 21.9284 15.0786 21.9284 15.2235C21.9284 15.3686 21.9088 15.5034 21.8849 15.5233C21.8611 15.5432 21.8415 15.7011 21.8415 15.8743C21.8415 16.0474 21.8254 16.2026 21.8056 16.219C21.7858 16.2355 21.7651 16.4009 21.7596 16.5867C21.754 16.7726 21.7341 16.9385 21.7154 16.9551C21.6966 16.9719 21.678 17.116 21.6739 17.2752C21.6698 17.4345 21.6507 17.5793 21.6314 17.597C21.5894 17.6356 21.576 18.1838 21.6174 18.1762C21.6992 18.1613 21.7571 18.1909 21.736 18.2368C21.723 18.2653 21.7511 18.3023 21.7987 18.319C21.8462 18.3358 21.8739 18.325 21.8601 18.295C21.8463 18.265 21.9044 18.2929 21.989 18.357C22.0737 18.421 22.2119 18.4797 22.2961 18.4873C22.3804 18.495 22.4494 18.5222 22.4494 18.5478C22.4494 18.5734 22.508 18.5943 22.5796 18.5943C22.6513 18.5943 22.7099 18.6207 22.7099 18.6528C22.7099 18.685 22.788 18.7113 22.8835 18.7113C22.9791 18.7113 23.0572 18.7376 23.0572 18.7698C23.0572 18.802 23.1614 18.8283 23.2887 18.8283C23.4162 18.8283 23.535 18.8481 23.5529 18.8722C23.5934 18.9269 23.6061 18.9291 23.9281 18.938C24.0912 18.9425 24.1809 18.9675 24.1643 19.0038C24.147 19.0417 24.3367 19.0623 24.7019 19.0623C25.0383 19.0623 25.2774 19.0864 25.2937 19.122C25.325 19.1901 25.6621 19.1739 25.6621 19.1041C25.6622 19.0788 25.6997 19.0853 25.7456 19.1183C25.7945 19.1536 25.8348 19.1562 25.8433 19.1245C25.8511 19.0949 26.1151 19.0632 26.4297 19.054C26.7443 19.0448 26.9923 19.0165 26.9807 18.9912C26.9691 18.9659 27.0889 18.9453 27.2469 18.9453C27.4274 18.9453 27.5243 18.9235 27.5074 18.8868C27.4846 18.8372 27.7195 18.7929 27.8472 18.8229C27.8668 18.8274 27.8705 18.8042 27.8554 18.7713C27.8384 18.7341 27.8941 18.7113 28.0016 18.7113C28.0971 18.7113 28.1873 18.685 28.2021 18.6528C28.2169 18.6207 28.2767 18.5943 28.335 18.5943C28.3932 18.5943 28.4409 18.568 28.4409 18.5358C28.4409 18.5037 28.4885 18.4773 28.5468 18.4773C28.6051 18.4773 28.6634 18.4544 28.6762 18.4264C28.699 18.3767 28.9514 18.2785 29.0162 18.294C29.0341 18.2983 29.0487 18.2739 29.0487 18.2398C29.0487 18.2058 29.0653 18.1917 29.0855 18.2087C29.1058 18.2255 29.1644 18.1866 29.2158 18.1221C29.2672 18.0576 29.3092 18.0231 29.3092 18.0453C29.3092 18.0677 29.3471 18.0398 29.3934 17.9835C29.4396 17.927 29.4961 17.8965 29.519 17.9156C29.542 17.9346 29.571 17.9137 29.5837 17.8691C29.5964 17.8247 29.7155 17.7166 29.8483 17.629C29.9811 17.5414 30.0791 17.4463 30.066 17.4178C30.053 17.3893 30.0738 17.3659 30.1124 17.3659C30.1511 17.3659 30.1706 17.3396 30.1559 17.3074C30.1411 17.2752 30.1704 17.2489 30.221 17.2489C30.2716 17.2489 30.3009 17.2226 30.2861 17.1904C30.2714 17.1583 30.275 17.1319 30.2944 17.1319C30.3137 17.1318 30.3863 17.066 30.4557 16.9857C30.525 16.9053 30.5683 16.8395 30.5518 16.8395C30.5353 16.8395 30.5909 16.7577 30.6753 16.658C30.7598 16.5581 30.8288 16.4455 30.8288 16.4076C30.8288 16.3697 30.8679 16.3008 30.9157 16.2545C30.9634 16.2081 31.0025 16.14 31.0025 16.1033C31.0025 16.0664 31.043 15.967 31.0925 15.8822C31.142 15.7973 31.1699 15.728 31.1545 15.728C31.1391 15.728 31.1573 15.6866 31.1947 15.636C31.2323 15.5856 31.263 15.505 31.263 15.4572C31.263 15.4094 31.2825 15.3864 31.3064 15.4063C31.3311 15.4268 31.3498 15.3776 31.3498 15.2928C31.3498 15.2105 31.3694 15.1431 31.3932 15.1431C31.4171 15.1431 31.4367 15.0625 31.4367 14.9641C31.4367 14.8482 31.4536 14.7993 31.4847 14.8251C31.5161 14.8513 31.5238 14.8272 31.507 14.7555C31.4928 14.6953 31.5103 14.5704 31.5457 14.4783C31.5812 14.3861 31.6103 14.2216 31.6103 14.1127C31.6103 14.0037 31.6265 13.9146 31.6464 13.9146C31.6947 13.9146 31.6993 12.1391 31.651 12.0991C31.6302 12.0817 31.6076 11.9764 31.6009 11.8649C31.5942 11.7537 31.564 11.6274 31.5339 11.5847C31.5039 11.5419 31.4898 11.4837 31.5029 11.4555C31.5262 11.4046 31.4623 11.2171 31.3638 11.0483C31.3356 11.0001 31.3121 10.9403 31.3113 10.9153C31.309 10.8332 31.1583 10.5219 31.1208 10.5219C31.1007 10.5219 31.0963 10.4955 31.111 10.4634C31.1258 10.4312 31.114 10.4049 31.0847 10.4049C31.0554 10.4049 31.0416 10.3913 31.0539 10.3746C31.0662 10.3579 30.8985 10.0989 30.6812 9.79901C30.438 9.46324 30.2738 9.2781 30.2542 9.31729C30.2339 9.35809 30.2221 9.34859 30.2216 9.29126C30.2209 9.18465 29.7574 8.74842 29.6977 8.79814C29.6751 8.817 29.6566 8.80764 29.6566 8.77752C29.6566 8.74739 29.598 8.68992 29.5263 8.65C29.4547 8.61007 29.3961 8.55421 29.3961 8.52584C29.3961 8.49762 29.3659 8.47451 29.3291 8.47451C29.2923 8.47451 29.221 8.42274 29.1706 8.35956C29.1203 8.29624 29.0647 8.25647 29.0471 8.27109C29.0295 8.28571 28.991 8.25851 28.9615 8.21069C28.9319 8.16272 28.8724 8.12353 28.8289 8.12353C28.7855 8.12353 28.7379 8.09721 28.7231 8.06504C28.7083 8.03286 28.6599 8.00654 28.6156 8.00654C28.5713 8.00654 28.5281 7.97875 28.5197 7.94483C28.5113 7.9109 28.4755 7.87536 28.4401 7.866C28.3128 7.83193 28.2248 7.75925 28.2483 7.70792C28.2616 7.67911 28.2338 7.65556 28.1866 7.65556C28.1394 7.65556 28.094 7.62807 28.0856 7.59444C28.0774 7.5608 28.0269 7.52892 27.9735 7.52351C27.9201 7.5181 27.8765 7.49294 27.8765 7.46765C27.8765 7.44235 27.8521 7.42816 27.8222 7.4362C27.7924 7.44425 27.7728 7.41792 27.7788 7.37771C27.7848 7.33749 27.7492 7.30459 27.6997 7.30459C27.602 7.30459 27.4732 7.16537 27.5168 7.10687C27.5315 7.08684 27.5083 7.0706 27.4651 7.0706C27.4219 7.0706 27.3342 6.99675 27.2701 6.90638C27.206 6.816 27.1306 6.75239 27.1026 6.76496C27.0745 6.77754 27.0516 6.75428 27.0516 6.71304C27.0516 6.67195 27.0003 6.56622 26.9376 6.47804C26.7981 6.28193 26.7724 5.74201 26.8946 5.57734C26.9336 5.52484 26.9525 5.45099 26.9365 5.41341C26.9204 5.37568 26.9237 5.36486 26.9437 5.38928C26.9635 5.4137 27.0131 5.36544 27.0537 5.28209C27.0942 5.19873 27.1446 5.12619 27.1655 5.12078C27.1864 5.11537 27.1986 5.09124 27.1927 5.06711C27.1867 5.04298 27.2088 5.02324 27.2419 5.02324C27.3176 5.02324 27.5344 4.87437 27.5088 4.83986C27.4984 4.82582 27.5388 4.80885 27.5986 4.80212C27.6584 4.79554 27.7452 4.76279 27.7915 4.72944C27.8378 4.6961 27.9451 4.66524 28.0298 4.661C28.1146 4.65661 28.1942 4.63117 28.2064 4.60426C28.2188 4.57735 28.5415 4.55527 28.9236 4.55527C29.3059 4.55527 29.6078 4.57808 29.5949 4.60616C29.5821 4.63409 29.6826 4.66042 29.8182 4.66466C29.9538 4.66875 30.0842 4.69859 30.1081 4.73076C30.132 4.76293 30.216 4.78925 30.2948 4.78925C30.3736 4.78925 30.4381 4.80988 30.4381 4.83503C30.4381 4.86018 30.4918 4.88665 30.5575 4.89396C30.6231 4.90128 30.6834 4.9333 30.6913 4.96518C30.6993 4.99721 30.7531 5.02324 30.8107 5.02324C30.8684 5.02324 30.916 5.05614 30.9163 5.09636C30.9167 5.14506 30.9311 5.14023 30.9591 5.08174C30.9871 5.02324 31.0014 5.01841 31.0018 5.06711C31.0022 5.10733 31.0525 5.14023 31.1136 5.14023C31.1766 5.14023 31.2131 5.16553 31.1979 5.19873C31.1831 5.2309 31.2112 5.25722 31.2604 5.25722C31.3096 5.25722 31.3498 5.28355 31.3498 5.31572C31.3498 5.34789 31.3877 5.37422 31.4341 5.37422C31.4804 5.37422 31.5313 5.40259 31.5473 5.4371C31.6008 5.5538 31.754 5.25269 31.7692 5.00086C31.7875 4.70107 31.8011 4.60046 31.8338 4.52602C31.848 4.49385 31.8537 4.41824 31.8465 4.35814C31.8395 4.29789 31.8549 4.17943 31.881 4.09491C31.9072 4.01023 31.9332 3.80944 31.939 3.64858C31.9447 3.48772 31.9538 3.34952 31.959 3.34148C31.9643 3.33343 31.9734 3.30053 31.9794 3.26836C31.9853 3.23618 31.9945 3.20328 31.9997 3.19524C32.0048 3.18719 32.016 3.08848 32.0245 2.97588C32.033 2.86327 32.0612 2.57371 32.0873 2.33242C32.1945 1.33798 32.1996 1.43202 32.0342 1.35144C31.9529 1.31196 31.8524 1.27949 31.8109 1.27949C31.7695 1.27949 31.7475 1.25317 31.7623 1.22099C31.7855 1.17039 31.645 1.13705 31.448 1.1467C31.4184 1.14817 31.4049 1.12594 31.418 1.09742C31.4311 1.0689 31.3821 1.04551 31.309 1.04551C31.236 1.04551 31.1762 1.02372 31.1762 0.996954C31.1762 0.970338 31.0638 0.942552 30.9265 0.935094C30.7892 0.927782 30.6583 0.896925 30.6356 0.866653C30.6129 0.836381 30.4994 0.811521 30.3834 0.811521C30.2627 0.811521 30.1832 0.787975 30.1977 0.756533C30.2132 0.722606 29.7624 0.6995 29.028 0.696429C28.2365 0.693066 27.8331 0.711639 27.8331 0.751417ZM37.7092 0.755656C37.6951 0.786367 37.6375 0.811521 37.5812 0.811521C37.5249 0.811521 37.4724 0.837552 37.4643 0.869579C37.4564 0.901459 37.3976 0.933338 37.3336 0.940358C37.2697 0.947524 37.2268 0.97414 37.2385 0.99944C37.2502 1.02474 37.2292 1.04551 37.192 1.04551C37.1548 1.04551 37.1243 1.06861 37.1243 1.09684C37.1243 1.12521 37.0659 1.18092 36.9946 1.2207C36.9233 1.26048 36.8756 1.31634 36.8886 1.34471C36.9017 1.37323 36.8903 1.39648 36.8632 1.39648C36.7919 1.39648 36.6901 1.54872 36.6901 1.65547C36.6901 1.70607 36.6696 1.74746 36.6446 1.74746C36.5867 1.74746 36.4726 2.10706 36.5056 2.18559C36.5191 2.21806 36.5145 2.22537 36.4952 2.20168C36.4544 2.15196 36.3871 2.31472 36.3018 2.66877C36.269 2.80551 36.2257 2.91738 36.2056 2.91738C36.1855 2.91738 36.1691 2.98319 36.1691 3.06362C36.1691 3.14405 36.1507 3.20986 36.1282 3.20986C36.1057 3.20986 36.0948 3.26251 36.104 3.32685C36.1141 3.39719 36.0974 3.44385 36.0621 3.44385C36.025 3.44385 36.0118 3.48655 36.0263 3.56084C36.0395 3.62884 36.0276 3.67783 35.9979 3.67783C35.9698 3.67783 35.959 3.70415 35.9737 3.73633C35.9885 3.7685 35.9787 3.79482 35.952 3.79482C35.9253 3.79482 35.9141 3.81822 35.9273 3.84674C35.9404 3.87525 35.9211 3.93214 35.8844 3.97309C35.8478 4.01404 35.8289 4.08657 35.8425 4.13439C35.8562 4.18221 35.8366 4.26674 35.7993 4.32246C35.7619 4.37803 35.7343 4.44661 35.7379 4.47484C35.7495 4.56653 35.6824 4.78925 35.643 4.78925C35.6219 4.78925 35.6047 4.85345 35.6047 4.93198C35.6047 5.01052 35.5851 5.09109 35.5613 5.11098C35.5374 5.13087 35.5178 5.19829 35.5178 5.26073C35.5178 5.32318 35.4983 5.37422 35.4744 5.37422C35.4506 5.37422 35.431 5.44163 35.431 5.52397C35.431 5.60879 35.4122 5.65792 35.3876 5.63745C35.3623 5.61639 35.3442 5.67591 35.3442 5.78018C35.3442 5.8786 35.3246 5.95918 35.3008 5.95918C35.2769 5.95918 35.2573 6.01182 35.2573 6.07617C35.2573 6.14051 35.2378 6.19316 35.2139 6.19316C35.1901 6.19316 35.1705 6.25736 35.1705 6.33589C35.1705 6.41442 35.151 6.495 35.1271 6.51489C35.1032 6.53478 35.0837 6.60658 35.0837 6.67429C35.0837 6.74215 35.0699 6.779 35.0531 6.75633C35.0362 6.73367 34.9872 6.85431 34.944 7.02454C34.9009 7.19461 34.8537 7.3799 34.8392 7.4362C34.8249 7.49251 34.7958 7.53857 34.7747 7.53857C34.7536 7.53857 34.736 7.58464 34.7357 7.64094C34.7346 7.81701 34.6231 8.18525 34.5851 8.13874C34.5652 8.11432 34.5606 8.13845 34.5748 8.19241C34.5892 8.24637 34.5728 8.32198 34.5384 8.36044C34.504 8.3989 34.4758 8.49293 34.4758 8.56942C34.4758 8.6459 34.454 8.70849 34.4273 8.70849C34.4003 8.70849 34.3889 8.76012 34.4016 8.82549C34.4161 8.90065 34.4029 8.94248 34.3646 8.94248C34.3318 8.94248 34.3152 8.9786 34.3278 9.02262C34.3403 9.06678 34.3202 9.14385 34.283 9.19401C34.2457 9.24417 34.2153 9.33747 34.2153 9.40138C34.2153 9.46529 34.1949 9.52685 34.17 9.53811C34.145 9.54923 34.1221 9.62381 34.1188 9.7038C34.1157 9.7838 34.0954 9.8809 34.0737 9.91965C34.052 9.95855 34.0471 10.0184 34.0628 10.0527C34.0787 10.0871 34.0657 10.108 34.0341 10.0992C34.0012 10.09 33.9816 10.1251 33.9886 10.1811C33.9951 10.235 33.9805 10.2958 33.956 10.3161C33.9315 10.3366 33.9114 10.4176 33.9114 10.4961C33.9114 10.5747 33.8919 10.6389 33.868 10.6389C33.8441 10.6389 33.8246 10.6915 33.8246 10.7559C33.8246 10.8202 33.8051 10.8728 33.7812 10.8728C33.7573 10.8728 33.7378 10.9387 33.7378 11.0191C33.7378 11.0995 33.7182 11.1653 33.6943 11.1653C33.6705 11.1653 33.6509 11.2327 33.6509 11.3151C33.6509 11.3999 33.6321 11.449 33.6075 11.4286C33.5819 11.4072 33.5638 11.472 33.5634 11.5859C33.5629 11.7324 33.5525 11.7582 33.5207 11.6918C33.4878 11.6232 33.4784 11.6383 33.4779 11.7614C33.4776 11.848 33.4577 11.9351 33.4338 11.955C33.41 11.9749 33.3904 12.057 33.3904 12.1374C33.3904 12.22 33.3715 12.268 33.347 12.2475C33.3217 12.2264 33.3036 12.286 33.3036 12.3902C33.3036 12.4887 33.284 12.5692 33.2602 12.5692C33.2363 12.5692 33.2168 12.6367 33.2168 12.719C33.2168 12.8038 33.198 12.8529 33.1733 12.8325C33.1495 12.8126 33.1299 12.8452 33.1299 12.905C33.1299 12.9648 33.1065 13.0454 33.0778 13.084C33.0492 13.1226 33.04 13.1542 33.0576 13.1542C33.0752 13.1542 33.0653 13.2134 33.0358 13.2858C33.0063 13.3582 32.9774 13.4565 32.9716 13.5041C32.9657 13.5518 32.9404 13.6001 32.9152 13.6113C32.89 13.6226 32.8694 13.7087 32.8694 13.8025C32.8694 13.8964 32.8499 13.9731 32.826 13.9731C32.8021 13.9731 32.7826 14.0126 32.7826 14.0609C32.7826 14.1091 32.763 14.1486 32.7392 14.1486C32.7153 14.1486 32.6958 14.2128 32.6958 14.2914C32.6958 14.3699 32.6762 14.4505 32.6523 14.4704C32.6285 14.4902 32.6089 14.5577 32.6089 14.6201C32.6089 14.6826 32.5894 14.7336 32.5655 14.7336C32.5416 14.7336 32.5221 14.784 32.5221 14.8458C32.5221 14.9073 32.5037 14.9666 32.4814 14.9774C32.4433 14.9955 32.4037 15.2138 32.3954 15.4502C32.3935 15.5065 32.3602 15.5525 32.3216 15.5525C32.2704 15.5525 32.257 15.5916 32.272 15.697C32.2832 15.7764 32.2757 15.8276 32.2553 15.8105C32.2349 15.7935 32.2182 15.8323 32.2182 15.8966C32.2182 15.961 32.1986 16.0299 32.1747 16.0498C32.1509 16.0696 32.1313 16.1517 32.1313 16.2321C32.1313 16.3147 32.1124 16.3627 32.0879 16.3422C32.0626 16.3212 32.0445 16.3795 32.0445 16.4816C32.0445 16.5781 32.025 16.6733 32.0011 16.6932C31.9772 16.7131 31.9577 16.782 31.9577 16.8463C31.9577 16.9107 31.9381 16.9471 31.9142 16.9272C31.8896 16.9067 31.8708 16.9559 31.8708 17.0407C31.8708 17.123 31.8554 17.1904 31.8366 17.1904C31.8179 17.1904 31.7992 17.2492 31.7952 17.3212C31.7912 17.3931 31.7675 17.4611 31.7425 17.4722C31.7176 17.4835 31.6972 17.5432 31.6972 17.6047C31.6972 17.6664 31.6776 17.7169 31.6537 17.7169C31.6299 17.7169 31.6103 17.7959 31.6103 17.8924C31.6103 17.9889 31.5908 18.0679 31.5669 18.0679C31.543 18.0679 31.5235 18.1205 31.5235 18.1849C31.5235 18.2492 31.504 18.3019 31.4801 18.3019C31.4562 18.3019 31.4367 18.3693 31.4367 18.4516C31.4367 18.5364 31.4179 18.5856 31.3932 18.5651C31.3687 18.5448 31.3498 18.5921 31.3498 18.6737C31.3498 18.7534 31.3268 18.8289 31.2986 18.8416C31.2701 18.8543 31.2598 18.9083 31.2755 18.9634C31.3013 19.0541 31.4584 19.0623 33.178 19.0623C35.2054 19.0623 35.1649 19.0686 35.1691 18.7552C35.1699 18.6989 35.1859 18.6528 35.2047 18.6528C35.2235 18.6528 35.242 18.5959 35.246 18.5265C35.2499 18.457 35.2757 18.3813 35.3035 18.358C35.3403 18.3274 35.338 18.3074 35.2948 18.2843C35.2528 18.2618 35.2514 18.2513 35.2899 18.248C35.3198 18.2454 35.3442 18.2203 35.3442 18.192C35.3442 18.1638 35.377 18.0388 35.4171 17.9142C35.4572 17.7896 35.4853 17.6416 35.4795 17.5853C35.4737 17.529 35.4897 17.4829 35.5151 17.4829C35.5405 17.4829 35.5613 17.4424 35.5613 17.3928C35.5613 17.3432 35.6003 17.1995 35.6481 17.0734C35.6959 16.9474 35.7349 16.7773 35.7349 16.6955C35.7349 16.6138 35.7545 16.547 35.7784 16.547C35.8022 16.547 35.8218 16.4809 35.8218 16.4C35.8218 16.271 35.888 16.0483 35.952 15.962C35.964 15.9459 35.9806 15.8801 35.9889 15.8158C36.0333 15.4739 35.9018 15.494 38.081 15.494H40.0766V15.7456C40.0766 15.8839 40.0951 16.0221 40.1178 16.0527C40.1403 16.0832 40.163 16.2267 40.1682 16.3715C40.1734 16.5163 40.1937 16.6632 40.2134 16.6982C40.233 16.7331 40.2526 16.8855 40.2568 17.037C40.261 17.1884 40.2809 17.326 40.3008 17.3425C40.3207 17.3592 40.3371 17.4618 40.3371 17.5707C40.3371 17.6795 40.353 17.7817 40.3723 17.7978C40.3916 17.8138 40.4123 17.9528 40.4182 18.1063C40.4241 18.26 40.446 18.4134 40.4668 18.4472C40.4878 18.4811 40.511 18.6268 40.5186 18.771L40.5325 19.0331L42.1995 19.0484L43.8665 19.0638L43.8362 18.5234C43.8195 18.2264 43.7852 17.9659 43.7599 17.9449C43.7298 17.9199 43.7344 17.8955 43.773 17.8748C43.815 17.8523 43.8164 17.8418 43.7779 17.8386C43.7455 17.8358 43.7236 17.7514 43.7236 17.6291C43.7236 17.5165 43.7079 17.4244 43.6887 17.4244C43.6695 17.4244 43.649 17.3149 43.6431 17.1811C43.6372 17.0473 43.6139 16.8911 43.5912 16.834C43.5685 16.7769 43.55 16.6122 43.55 16.468C43.55 16.3238 43.5314 16.197 43.5087 16.1862C43.486 16.1755 43.4628 16.0565 43.457 15.9216C43.4512 15.7868 43.4307 15.6897 43.4114 15.7057C43.3811 15.7309 43.3522 15.3294 43.3735 15.1777C43.3775 15.1485 43.3614 15.1083 43.3376 15.0885C43.3138 15.0686 43.2883 14.9306 43.281 14.7816C43.2737 14.6327 43.2531 14.523 43.2352 14.5379C43.2052 14.5628 43.1816 14.2248 43.2004 14.0404C43.2048 13.997 43.1876 13.9787 43.1622 13.9999C43.1323 14.0249 43.1158 13.9554 43.1158 13.8045C43.1158 13.6758 43.0963 13.5543 43.0724 13.5344C43.0485 13.5145 43.029 13.3829 43.029 13.2419C43.029 13.101 43.0094 12.9693 42.9856 12.9495C42.9617 12.9296 42.9421 12.8111 42.9421 12.6862C42.9421 12.5613 42.9261 12.4458 42.9064 12.4294C42.8867 12.4131 42.8746 12.2996 42.8796 12.1773C42.8845 12.0551 42.8767 11.9287 42.8623 11.8965C42.8235 11.8101 42.805 11.6805 42.8088 11.5211C42.8106 11.4433 42.7868 11.338 42.756 11.2871C42.7251 11.2363 42.7006 11.1024 42.7017 10.9898C42.7028 10.8772 42.6885 10.77 42.6698 10.7515C42.6512 10.733 42.6319 10.5953 42.627 10.4454C42.622 10.2956 42.5946 10.1608 42.5659 10.146C42.5338 10.1295 42.5211 10.0407 42.5327 9.91454C42.5431 9.80208 42.532 9.69371 42.5081 9.67383C42.4841 9.65379 42.4646 9.53592 42.4646 9.41191C42.4646 9.28614 42.4406 9.1731 42.4103 9.15672C42.3702 9.13493 42.3716 9.12601 42.4156 9.12265C42.4639 9.11884 42.4649 9.10115 42.4205 9.0292C42.3904 8.9805 42.3659 8.83631 42.3659 8.70893C42.3659 8.5817 42.349 8.49147 42.3283 8.50873C42.3077 8.52584 42.2909 8.40826 42.2909 8.2474C42.2909 8.08653 42.2713 7.93869 42.2475 7.9188C42.2236 7.89891 42.204 7.78045 42.204 7.65556C42.204 7.53067 42.1845 7.41222 42.1606 7.39233C42.1368 7.37244 42.1172 7.28031 42.1172 7.1876C42.1172 7.09488 42.0977 7.00275 42.0738 6.98286C42.0499 6.96297 42.0304 6.8413 42.0304 6.71232C42.0304 6.58348 42.0127 6.43343 41.9911 6.37903C41.9695 6.32463 41.9451 6.16172 41.9368 6.01723C41.9286 5.87275 41.9081 5.74055 41.8912 5.72344C41.8745 5.70633 41.8558 5.59445 41.8499 5.47483C41.8439 5.35521 41.8234 5.25722 41.8044 5.25722C41.7854 5.25722 41.7699 5.124 41.7699 4.96123C41.7699 4.77887 41.7533 4.67928 41.7265 4.70151C41.6994 4.72403 41.6828 4.60923 41.6824 4.39792C41.682 4.15691 41.6695 4.08365 41.6396 4.1458C41.6098 4.20795 41.5973 4.13468 41.5969 3.89368C41.5964 3.68236 41.5798 3.56756 41.5528 3.59009C41.5155 3.62123 41.4819 3.24452 41.5066 3.06903C41.5106 3.03978 41.4945 2.99971 41.4707 2.97982C41.447 2.96008 41.4229 2.82086 41.4171 2.67067C41.4113 2.52034 41.3906 2.41066 41.3711 2.42674C41.3517 2.44298 41.3357 2.3216 41.3357 2.15693C41.3357 1.97223 41.3191 1.87132 41.2923 1.8937C41.2563 1.92368 41.2223 1.56495 41.2438 1.38186C41.2466 1.35773 41.2293 1.33799 41.2055 1.33799C41.1816 1.33799 41.162 1.2441 41.162 1.12945C41.162 0.663525 41.2766 0.69175 39.403 0.695845C38.3919 0.698185 37.7247 0.721729 37.7092 0.755656ZM38.4751 6.48564C38.4819 6.59825 38.5006 6.7167 38.5168 6.74888C38.5503 6.81556 38.5953 7.10263 38.6293 7.4653C38.6421 7.60189 38.6661 7.70251 38.6826 7.68861C38.6991 7.67487 38.7174 7.7474 38.723 7.84977C38.7338 8.04471 38.8016 8.37419 38.8663 8.5469C38.8872 8.60276 38.9044 8.7278 38.9044 8.82475C38.9044 8.92171 38.9206 9.00097 38.9405 9.00097C38.9605 9.00097 38.9778 9.03388 38.9793 9.07409C38.9907 9.39699 39.0143 9.58593 39.0435 9.58593C39.0625 9.58593 39.078 9.69123 39.078 9.81992C39.078 9.94861 39.0954 10.0539 39.1167 10.0539C39.1546 10.0539 39.1808 10.212 39.2355 10.7705C39.2505 10.9233 39.2798 11.0483 39.3007 11.0483C39.3215 11.0483 39.3385 11.1291 39.3385 11.2276C39.3385 11.3263 39.3587 11.458 39.3835 11.5201C39.4274 11.6307 39.4021 11.6333 38.2972 11.6333H37.166L37.187 11.4771C37.1985 11.3913 37.2248 11.3057 37.2453 11.287C37.2658 11.2684 37.3087 11.1215 37.3405 10.9606C37.3723 10.7997 37.4117 10.6418 37.4282 10.6096C37.4446 10.5774 37.4543 10.4787 37.4498 10.3903C37.4453 10.3018 37.4581 10.2294 37.4783 10.2294C37.4985 10.2294 37.515 10.1636 37.515 10.0832C37.515 10.0027 37.5346 9.93691 37.5584 9.93691C37.5823 9.93691 37.6019 9.84478 37.6019 9.73217C37.6019 9.61957 37.6214 9.52744 37.6453 9.52744C37.6692 9.52744 37.6887 9.46163 37.6887 9.3812C37.6887 9.30077 37.7082 9.23496 37.7321 9.23496C37.756 9.23496 37.7755 9.14444 37.7755 9.03373C37.7755 8.92303 37.7951 8.81613 37.8189 8.79624C37.8428 8.77635 37.8624 8.70893 37.8624 8.64649C37.8624 8.58404 37.8778 8.53301 37.8965 8.53301C37.9153 8.53301 37.9355 8.44789 37.9414 8.34392C37.9473 8.23979 37.971 8.12924 37.994 8.09823C38.0171 8.06708 38.036 7.9827 38.036 7.91061C38.036 7.83851 38.0556 7.7632 38.0794 7.74331C38.1033 7.72342 38.1229 7.61652 38.1229 7.50581C38.1229 7.39511 38.1424 7.30459 38.1663 7.30459C38.1902 7.30459 38.2097 7.25355 38.2097 7.1911C38.2097 7.12866 38.2292 7.06124 38.2531 7.04136C38.277 7.02147 38.2965 6.91456 38.2965 6.80386C38.2965 6.69316 38.3161 6.60263 38.3399 6.60263C38.3638 6.60263 38.3834 6.50524 38.3834 6.3862C38.3834 6.11638 38.4578 6.19711 38.4751 6.48564Z" fill="#2494BC"/>
<path fill-rule="evenodd" clip-rule="evenodd" d="M4.51807 3.46966C4.51807 3.48604 4.57549 3.53942 4.64571 3.58841C6.07174 4.58182 8.14197 7.59407 9.03928 9.98086C9.18744 10.375 9.32486 10.6974 9.34472 10.6974C9.4029 10.6974 9.3864 10.611 9.30478 10.488C9.26299 10.4251 9.13643 10.124 9.02344 9.81897C8.74503 9.067 8.41267 8.32995 8.18245 7.95368C8.15108 7.90235 8.00336 7.64979 7.85422 7.39241C7.5249 6.82397 6.8502 5.87692 6.31455 5.23142C5.68077 4.4676 4.51807 3.32737 4.51807 3.46966ZM37.0728 15.538C37.6297 15.5472 38.5285 15.5472 39.07 15.538C39.6116 15.5286 39.1561 15.521 38.0576 15.521C36.9592 15.521 36.516 15.5286 37.0728 15.538Z" fill="#8CAC8C"/>
<path fill-rule="evenodd" clip-rule="evenodd" d="M6.88465 6.07627C7.09859 6.36583 7.28333 6.60274 7.29527 6.60274C7.30721 6.60274 7.14201 6.36583 6.92807 6.07627C6.71413 5.78671 6.52939 5.5498 6.51745 5.5498C6.50551 5.5498 6.67072 5.78671 6.88465 6.07627ZM8.20887 8.18213C8.25988 8.27865 8.31133 8.35762 8.32327 8.35762C8.33521 8.35762 8.3033 8.27865 8.25229 8.18213C8.20127 8.08561 8.14982 8.00664 8.13788 8.00664C8.12594 8.00664 8.15785 8.08561 8.20887 8.18213Z" fill="#54A4A4"/>
<path fill-rule="evenodd" clip-rule="evenodd" d="M5.74654 4.71155C5.78388 4.7933 6.21142 5.28043 6.21142 5.24123C6.21142 5.22603 6.09984 5.08534 5.96351 4.92872C5.82719 4.77195 5.72961 4.67426 5.74654 4.71155Z" fill="#449CAC"/>
</svg>
